<?xml version="1.0" encoding="utf-8"?>
<!-- Generator: Adobe Illustrator 16.0.0, SVG Export Plug-In . SVG Version: 6.00 Build 0)  -->
<!DOCTYPE svg PUBLIC "-//W3C//DTD SVG 1.1//EN" "http://www.w3.org/Graphics/SVG/1.1/DTD/svg11.dtd" [
	<!ENTITY ns_flows "http://ns.adobe.com/Flows/1.0/">
	<!ENTITY ns_extend "http://ns.adobe.com/Extensibility/1.0/">
	<!ENTITY ns_ai "http://ns.adobe.com/AdobeIllustrator/10.0/">
	<!ENTITY ns_graphs "http://ns.adobe.com/Graphs/1.0/">
]>
<svg version="1.1" id="Layer_1" xmlns:x="&ns_extend;" xmlns:i="&ns_ai;" xmlns:graph="&ns_graphs;"
	 xmlns="http://www.w3.org/2000/svg" xmlns:xlink="http://www.w3.org/1999/xlink" xmlns:a="http://ns.adobe.com/AdobeSVGViewerExtensions/3.0/"
	 x="0px" y="0px" width="790.594px" height="310.41px" viewBox="0 0 790.594 310.41" enable-background="new 0 0 790.594 310.41"
	 xml:space="preserve">
<metadata><?xpacket begin="﻿" id="W5M0MpCehiHzreSzNTczkc9d"?>
<x:xmpmeta xmlns:x="adobe:ns:meta/" x:xmptk="Adobe XMP Core 5.3-c011 66.145661, 2012/02/06-14:56:27        ">
   <rdf:RDF xmlns:rdf="http://www.w3.org/1999/02/22-rdf-syntax-ns#">
      <rdf:Description rdf:about=""
            xmlns:xmp="http://ns.adobe.com/xap/1.0/"
            xmlns:xmpGImg="http://ns.adobe.com/xap/1.0/g/img/">
         <xmp:CreatorTool>Adobe Illustrator CS6 (Macintosh)</xmp:CreatorTool>
         <xmp:CreateDate>2017-01-14T13:59:47+03:00</xmp:CreateDate>
         <xmp:Thumbnails>
            <rdf:Alt>
               <rdf:li rdf:parseType="Resource">
                  <xmpGImg:width>256</xmpGImg:width>
                  <xmpGImg:height>104</xmpGImg:height>
                  <xmpGImg:format>JPEG</xmpGImg:format>
                  <xmpGImg:image>/9j/4AAQSkZJRgABAgEASABIAAD/7QAsUGhvdG9zaG9wIDMuMAA4QklNA+0AAAAAABAASAAAAAEA&#xA;AQBIAAAAAQAB/+4ADkFkb2JlAGTAAAAAAf/bAIQABgQEBAUEBgUFBgkGBQYJCwgGBggLDAoKCwoK&#xA;DBAMDAwMDAwQDA4PEA8ODBMTFBQTExwbGxscHx8fHx8fHx8fHwEHBwcNDA0YEBAYGhURFRofHx8f&#xA;Hx8fHx8fHx8fHx8fHx8fHx8fHx8fHx8fHx8fHx8fHx8fHx8fHx8fHx8fHx8f/8AAEQgAaAEAAwER&#xA;AAIRAQMRAf/EAaIAAAAHAQEBAQEAAAAAAAAAAAQFAwIGAQAHCAkKCwEAAgIDAQEBAQEAAAAAAAAA&#xA;AQACAwQFBgcICQoLEAACAQMDAgQCBgcDBAIGAnMBAgMRBAAFIRIxQVEGE2EicYEUMpGhBxWxQiPB&#xA;UtHhMxZi8CRygvElQzRTkqKyY3PCNUQnk6OzNhdUZHTD0uIIJoMJChgZhJRFRqS0VtNVKBry4/PE&#xA;1OT0ZXWFlaW1xdXl9WZ2hpamtsbW5vY3R1dnd4eXp7fH1+f3OEhYaHiImKi4yNjo+Ck5SVlpeYmZ&#xA;qbnJ2en5KjpKWmp6ipqqusra6voRAAICAQIDBQUEBQYECAMDbQEAAhEDBCESMUEFURNhIgZxgZEy&#xA;obHwFMHR4SNCFVJicvEzJDRDghaSUyWiY7LCB3PSNeJEgxdUkwgJChgZJjZFGidkdFU38qOzwygp&#xA;0+PzhJSktMTU5PRldYWVpbXF1eX1RlZmdoaWprbG1ub2R1dnd4eXp7fH1+f3OEhYaHiImKi4yNjo&#xA;+DlJWWl5iZmpucnZ6fkqOkpaanqKmqq6ytrq+v/aAAwDAQACEQMRAD8A9U4q7FXYq7FXYq7FXYq7&#xA;FXYq7FXYq7FXYqhLmKOa8gilQSRenI/BgCOSlADQ+AY4qv8A0bp3/LLD/wAi1/pirv0bp3/LLD/y&#xA;LX+mKpT5ivdI0WzE76ekzuSsarEoWv8AlPSi5g6/XDTw4iCb/G5c3Q6I6ifCCBX42CYWdpp1xZwX&#xA;Bs4VM0aSFeCmnJQadPfMrFPjgJd4BcbLDhmY9xpV05VW2KqAFWWYKo2AAlYADLGtE4q7FXYq7FXY&#xA;q7FXYq7FXYq7FXYq7FXYq7FXYq7FXYq7FXYq7FXYq7FXYq7FXYq7FUPJ/wAdGD/jDN/xKLFVmq6t&#xA;pmk2E2oandR2dlAOUtxMwRFHzPc9h3xV5loX/OSHkbWPNq6DFHcQ29w6wWGpyLSOaZ24hTH9uMMT&#xA;8Jb6QuKpx511i+sPMNIXDQPboJbaQc4nHJtmQ7Zyva+rni1G30mIsHkefR6jsnSwy4N+YkaI5jl1&#xA;Zzp8iyWFtIqCNXiRhGvRQVBoPYZ0uCV44mqsB5zPGpyF3uWtP/uG/wCM0/8AyefLWpEYq7FXYq7F&#xA;XYq7FXYq7FXYq7FXYq7FXYq7FXYq7FXYq7FXYq7FXYq7FXYq7FXYq7FUPJ/x0YP+MM3/ABKLFXk/&#xA;58/lH5j86RQajouou81jGQNEmfjbyHc+pETRVlNeJ5bEU3FN1Xg/5beb/wDlWvnGWTXtAFxMhEU6&#xA;ToUvLUitXg5/CCQ29R8Q6MMVe6a95q0PzRcW+r6Lci5spYFXlQqyOpbkjqd1Za9P4Zxnb/8AjH+a&#xA;P0vYdhf3H+cf0PWdI/45Nl/xgi/4gM6zS/3UP6o+55bVf3sv6x+9fp/9w3/Gaf8A5PPl7QiMVdir&#xA;sVdirsVdirsVdirsVdirsVdirsVdirsVdirsVdirsVdirsVdirsVdirsVdiqHk/46MH/ABhm/wCJ&#xA;RYqrsKqR0rirz78wfyg0LzhATerxvFBEF6gAmTwHL9pf8k7Yq860DyBrHkqwm0y/IljNy7292gIR&#xA;0ZV41r9lvhNV/WM5Dt/DLxROvTXN6zsLLHwjC/VfJ71okgfR7Ij/AHxGPuQZ0+k/uof1R9zzWq/v&#xA;Zf1j96rp/wDcN/xmn/5PPmQ0IjFXYq7FXYq7FXYq7FXYq7FXYq7FXYq7FXYq7FXYq7FXYq7FXYq7&#xA;FXYq7FXYq7FXYqoXEU3qxzwhWdAyFHJUFXoTuA29UHbFWvU1H/fEP/I5v+qWKu9TUf8AfEP/ACOb&#xA;/qliqlcQ3NxE0U9pbyxtsyPIzA/MGLIyiJCiLCYyMTY2K6Jb2GNY4raBI0ACqJWoANgP7rDGIAoc&#xA;gsiSbPNVtInih4vTmXd2CmoHNy9KkDpywoVsVdirsVdirsVdirsVdirsVdirsVdirsVdirsVdirs&#xA;VdirsVdirsVdirsVdirsVdiqXa3oseqwW8bzPD9WuI7lOIVkZo60WSNwyOu9aEbNRhRlBxVINL/L&#xA;XTtMuUuLW9uPVjvLzUIjIQwWa+jWNyBsDx41UMCBXp0oq3ZflnpFpZ2lul3cyNZ25tIrmVlef0vr&#xA;a3aq0hXkeJXgP8n33xVfF+XWlxXEcy3Vwxjury8RWc0VrxBHwULxHCKNAsYNRTrU74qrWXkOws4b&#xA;CKK9vClgLpV9WYzGT60ZDWV5ecjGP124fF860xVMfKvl238ueXrLRLaeW4gskKJNOQ0jVYt8RAH8&#xA;1B7danfFU1xV2KuxV2KuxV2KuxV2KuxV2KuxV2KuxVLI/M/l+Rwi38PI9KtxH3mmYUe0tOTQnFzJ&#xA;dn5wL4CrXutaVYuqXdykLuvJQx6r0rlmbWYsRqcgLa8Wky5BcYkut9b0m4glnhuo2hgp60laKtel&#xA;ScYazFOJkJCo81npMsSImJs8nWetaVelxa3UczRjk6qdwPGnhjh1mLJfBIGly6XLj+qJFtw6xpc1&#xA;pJeR3MZtYjxkmrRQRQ0JPzGGGrxSgZiQ4R1RLS5IyEDE8R6Os9Z0q9Li1uo5mQcnVTuB4060wYdX&#xA;iyXwSBpOXS5cf1RItbb67pFxFNLDdJJHbrymYHZVNdz92CGtwzBMZAiPNM9HliQDEgy5LZfMGixQ&#xA;wzSXcaxTgmFyTRgpoafTglrsMQCZCpckx0WaRIETY5tR+YdEkhlnS8jaKDiZnBNF5Hitdu5xjr8J&#xA;iZCQqPNZaHMCAYmzyX2mu6PeSiK2vIpJT0QN8R+QPXDi1uHIajIEoy6PLjFyiQEazKqlmNFUVJPY&#xA;DMkmt3HAtCWOsaZfuyWdykzIKsF7DplGHV4spqEgab82lyYxc4kOt9Y0y4uJbeC4SSaEEyxg7qFN&#xA;Gr8jjj1eKcjGMgZDmielyQiJSiQDyU28waKtsl013GLeRiiSVNCy9RkDrsIiJcQ4SzGizGRjwniC&#xA;tY6tpt9yFncxzld2VGBIHiR1yzDqseX6JAsM2myY/riQ6+1TT7AIbydYBJUIW706/rxz6nHirjPD&#xA;aMOnyZb4BdIdPMmhPHJKt7GY4qGRqmg5Ggrt45UO0MBBImKDadBmBAMTZVLPXNIvJPStbuKWU9Iw&#xA;w5GngDucni1uHIajIEscuky4xcokB13ruj2k/oXN3HFNtVC24r4+GDLrcOOXDKQBXHo8sxxRiSG7&#xA;vWtKsxG1zdRxrMOUTE1DDxBHzw5dZix1xSAvkjFpMuS+GJNc27jV9Mt5jBNcIkoQylCd+ABJb5bY&#xA;Z6vFCXDKQBq/giGlySFgEi6+KG/xX5d/5b4vvP8ATKP5T0/88N38nZ/5hTRHV0V1NVYAqfEHM4EE&#xA;WHDIo0UrPmny8CQb+IEbEVP9Mwj2np/54cwdnZ/5hRH6a0r6zFbfWU9eYK0Udd2Diq0+eW/nMXEI&#xA;8Q4jy+LV+Uy8Jlwmhzc2s6Wv1mtyg+qUFz/kVNN/pxOrxDi9Q9HPyUaXIeH0n1cvNba6/ot3KIbe&#xA;8iklb7KBqE/IGlcji12HIajIEssmizQFyiQEVdXdtaW7XFzIIoUpzdugqQB+Jy/LljjjxSNANGPH&#xA;KcuGIsoa013R7yURW15FJKeiBviPyB65Ti1uHIajIEt2XR5cYuUSApz+ZNCgmeGa9jSWMlXQk1BH&#xA;UdMjPtDBEmJmAQyhoM0gCImiqwa3pM80UEN0jyzqXhQdWUV3H/AnJw1mKUhESBMuTCekyxBJiaHN&#xA;VGo2RvTYiZTdqvJof2gvWv45Px4cfBfr7mHgT4OOvT3vNdN0uxn8o6leyR1uoJFEUtTUD4NqVp3O&#xA;cbp9NCWkyTI9UTsfk9bn1E46qEAfTIbj5q9wbWa68u/pBgbY2qiYuaDiHYbnbwy2fDKWDxPp4Bd+&#xA;8tcOKMc3h/VxbfIJp5l0/S18sSS6GqG39dGumiYuCqhhvUnozDM3tHBiGmJwVw8Q4q3/ABzcPQZs&#xA;h1AGb6uE1f48lXSNF025ktNa0qVYYoYDHc2wBLGTgwbkSdj8X8cs0mjxzMc2I0BGiPOiw1OryQEs&#xA;OUWTKwfK2M83HksIDRW1FuQ8aQLTNLxH8lX+2/70O3ofm7/2v/fMnk0O2svM1vLpzQRW8UDJPD6o&#xA;9QuUcH4CanYqc3UtFHHqYnHwiIjuL3uj0+Tp46uWTTkZOIyMtjW3MdfmxTRbh7aG8Rtor60mjU9u&#xA;SDl9+345otHkMBIHlOEh8t3d6uAmYkc4Tifmj7lbZrPyutzT6sS4n5Gg4GccqnwpmVkETDT8X073&#xA;7uLdxcZkJ5+H6unv4U81u08vxeVdSl0cRlWMKyvExcVEqEA1J8c2esxaeOlyHDX8N0b/AIg67SZc&#xA;8tTAZb61fuKSNbabFL5aew4/XJWRrsRsWblySnIVPH9rNaceMHAcf1muKvh+12IyZCM4n9Aur+P7&#xA;GeeYbj6voV9LWhELhT7sOI/E51OvycGCZ/ol5rQw4s0B/SDCvIyvZeYI4n6XlryUfOjj/iJzm+xQ&#xA;ceoAP8cP2/oeh7XIyYCR/DP9iE0y5e082TTHaGW4nt3PvIWCj/gqZRpshx6snoZSj87btRjE9KB1&#xA;EYn5KcyhvKmmKdwbuUEfdkJi9Lj/AK5ZRP8AhM/6gT19PtNL8+afDYp6MUsPJ0BJBqJFPUn+UZsz&#xA;ghg18BjFAx/4r9Trhmlm0UzM2Qf1K35hrGz6UslPTMzB67Ch4Vy3t4AnHfLi/U19iEgZK51+tb5k&#xA;03Qbby5eS6WsVWaJZGicv+2CAd2yPaGnwQ00jirpyN9U6DPnnqIjLfXmK6JSttpsWo+WW0/j9YlE&#xA;DXgjYseVU5chU0/armAMeOOTB4f1Hh4q+H7XOOTJLHn8T6RxcN/H9jdvY2t4vmm5uYxLPblmhck1&#xA;UlpDUf8AAjDjwwyfmJSFyjy/2X6kTzSh4EYmhLn/ALFLr8TXGi6JGPjelwqDvQSbD+GYme54cQ6+&#xA;r73Kw1DNlP8AV+5NtJlh1XzBpnrgSJJYGGdT34LIjVp40zP0shn1GPi3Bx0fhYcLUxOHBPh2rJY+&#xA;wqtroWkv54vNPa3Bs44QyQ1agJSM1rWvVjk8WixHXSxmPoEeXwiwyazKNHHJfrJ5/Esyg1PR+aWs&#xA;N5AZB8CQrKhbbbjStc6KGpw2IxlG+VWHQz0+WuIxlXfRYL5Wt/LUwu/0uYvV9akIkcqaHwoR3zl+&#xA;zMemlxeNV8W1l6PtGeojw+FdVvQUvOHK08ypJbLQWcUDoP5RGQF/GmQ7WvHqQY/wCP2M+zPXp6l/&#xA;EZfavaZJovNUyGqSem6n2aWoyRmJDUEcjX+6YiJicAPS/uQ+q2FpZ+XtH1C2j9O7kPKSUE1JG4PW&#xA;nbKtVghj0+LJEVM9W3TZpZM+THI3EdGZ+d/+UXvf+eX/ACeTOi7Z/wAVn8P90HQdkf4zH4/7ksTv&#xA;tPtLOz8uXlqnpXM5RpZAT8TDgQdz79s0ObBDHDBOIqUqv7Hd4c8sk80JG4jl9qvaQ6DJ5o1gawYx&#xA;GJG9L1WKDlzNaUIy3FDAdVl8aqvazXVqySzjTY/Cu63r3IvWLe00/wAx+X57NQlq4WKPiSRxL9QT&#xA;/wAZsv1eOGLU4ZQ+k7fb/wAeadLOWXT5oz+rn9n/AB1F6CPrPnTWbvqIVEFfA1C/8ysyNF69bln3&#xA;bfj5NGs9GjxR79/x82PaVdW0fkrVYXlRZpJV9OMsOTfY6L1OanS5YjRZASLJ5fJ2mpxyOsxkDYD9&#xA;a54bWS78uRXoAtntl9UOeK8S7nc7YTCJngE/p4N/mUCchHMYfVxbfIMov9T0PQtHJsYI7m1kl9OW&#xA;CKQMAZFJJYnn1CUpm7z6jBpcPoAlEmiAe8fHudPh0+bU5fWTGQFgkdx+HeklsLbTfNwt9KmEljfQ&#xA;s0kSNyVaozAf7HjUexzW4xHDq+HEbhOPL4H8e52GTiy6Xiyipwl+kfj3pIQf8GKabDUWqfnAuawj&#xA;/A/+Sv8AvQ7G/wDC/wDkn/vk9vvqUnnm0msnWUTwmWVkbkOXpyfd8AXNpm4DroygbuNn5H9FOtw8&#xA;Y0UhMVUqHzH6bSV7MyeTobxR8VvdyIxH8siLX8VGa04b0YmP4Zn7QHYDLWrMP50B9hKKnSCS08rJ&#xA;cU+ruzLNyNBwM4DVPYUy+cYmGnEvp6+7iaYGQlnMfq6e/hT/AMwW+i23lPUYdLMXAmJ5FifnuZUF&#xA;Tu3hm212PDDSTGKq25G/4g6vRTzT1UDlvrzFdCkX1GHS5fLd/Zlo5rziZ6moO6A/8EHNc1fgDCcG&#xA;SGxnz+z9bsvGOYZoT3EOX2/qZP5/uPS8uSJWnryRx/cef/GmbrtzJw6cj+cQP0/odP2LDi1APcCf&#xA;0fpYzbXV7F5j0SS6snsvTSO0QPX41FY+W4H8+aXHknHU4jKJhQEff0/S7jJjhLT5RGXHZMvd1/Qp&#xA;S2jTafr06f3lperMpHWnN1P/ABKuQni4seaQ5xyX9pZxy8M8QPKUK+wKUpA8q6YTsBeSVP3ZXL/F&#xA;cf8AXLOP+Mz/AKgZBfXNvdfmBprW0izKkPFmjIYAgSsRUexzbZskZ9oY+E3Uen+c6vDjlDQz4hW/&#xA;/ErvzCjWR9JjfdXmZWHseAOS7eiCcYPWX6kdiSIGQju/Wv8AM2i6fpXla8jskKLJJEzgsW3Dgdyc&#xA;PaOjx4NLIQFWR96Oz9XkzamJmboH7kl+pQ6Rf+XLyzLJJeJE1wK1B58A9K/zBzmu8GODJgnDnMC/&#xA;jV/O3P8AFOeGaE+UCa+2vuVLC4gig82RyyKjyFgiMQCx5SjYHruwyWCcYx1IJon9cmOaEpHTkCwP&#xA;+OqGnKf+dX5DZppSK9x6wGV6cf4v/WP+6bM5/v8A+qP9yqeWrM2Xng2hrSFpkSv8vFiv3jJdnYvD&#xA;13B3cX6WOvy+Jo+Lv4U4sv8AyY9//wAYF/5NxZscP/GjP+r+iLgZf+M+H9b9Mk6g8q6DBeLeRWvG&#xA;5Vi6yepIfiPehambGHZmCM+MR9XPmf1uvn2jnlDgMvT7h+piXlGy8v3AvH1P0vVSb90ZZOBp12HJ&#xA;e+aHsrDp5cRy1YltZp3naeXPHhGO64d6FovVLVL/AM4XFupDC4sGEbDcVKVU/fmRqcQy6yUf52P9&#xA;GzRp8hxaWMv5uT9KQaJX9Ba8D1EUI3/4yZqtH/cZvdH73Z6v++xe+X3IvXLiCXytolvFIjzrXlEr&#xA;AsKim4HTL9bOMtLiiCDLuaNJCUdTlkRUe9l3nf8A5Re9/wCeX/J5M3/bP+Kz+H+6Do+yP8Zj8f8A&#xA;cli+q3NvLpvlmCKVZJk4841IZl+wNwOmaTU5Iyx4Ig2RX6HcabHKOTOSKB/arafZ6Lc+adZXVPT9&#xA;NZGMfqvwFeZrTdcswYsM9Vl8Wqvqa6tebLmhpsfhXddBfRG+e0hTStNu7Qq0VrMEiKHkvHjtQ7/7&#xA;7zJ7bERixzhyjLb8fBo7HJOWcZc5Df8AHxXeSru1jt9S1O6mSBLu7KiSVggJAL0qx/yzh7HywEcm&#xA;WREeOfXbz/SjtbHIyhjiCeGHTfy/QmK+RfLSsD9WY03oZHp+vMwdi6Yfw/aXEPbGoP8AF9gRepeW&#xA;NG1F43uoSTCgjjCsyAIOgopGX6js7DmIMhyFdzTg7Qy4gRE8za238q6HBaT2iW9be54mVGZjUr9k&#xA;gk1FK9sGPszBGBgI+mXNM+0c0pCRPqjydpnlXRdNkaW2hPqspXm7FiFPUDwx03ZmHCbiN11HaObK&#xA;Kkdl0PlnRotOl05YK2kr+o6MzE8qAVDVqPsjDDs7DHGcdegm2MtfllkGS/UNlul+VtG0x3ktoj6r&#xA;qUMjsWIU9QPDBpuzcOEkxG5ZajtHLlAEjsvj8uaTHpcmmLEfqcrc3QsxNag9a1/ZGSj2fiGI4gPQ&#xA;WMtdlOQZL9YUrjylodxb29vLCxitQywjmwoGNTvXffK8nZeCcYxI2jy3LOHaWaMjIHeXPZqHyhoU&#xA;NtcW0cLCG6CCZebGvBuS7123xh2VgjGUQNpVe56bpl2nmlISJ3jy2HVWuPLmk3ENpDLESliKW1GY&#xA;FencHf7IyzJ2fimIgjaHLdrhrssTIg/XzV9T0ix1OKOK8QyJG3NVBK/FSnb55ZqdLDMAJiwDbXp9&#xA;TPCSYGiWtR0aw1CS3lukLPasWhYMy0JIPYj+UY6jSY8piZDePJcGqniBETtLmsh0DS4Y7yNIjwv6&#xA;m6BZjy5VrTfb7R6ZGGhxREgB9fNlPW5JGJJ+jkh38paG9jHZNCxt4naRF5tUM3XetcpPZeAwEK9I&#xA;N8y2jtLMJmd+o7clXS/LejaZKZrS34zEU9RmZiAew5E0yzTdn4cJuEd2Go1+XMKmdlbUdHsNRaBr&#xA;tC5t25xUYrQmnh8ss1Gkx5q4x9PJrwaqeK+E/VzVNR0611C1a1ulLwuQWUEr9k1G4yeo08MsOCfJ&#xA;jgzyxS4o80NceXdKuFslkjJ+oALakMwKhaUrQ7/ZHXKcmgxT4bH0ct/x3NsNdljxUfr5/j4oe/8A&#xA;J+g31011NARK5rJwYqGPiQP4ZTn7JwZZ8Uhu24e08+OPCDsipNB0t5LOT0eJsP8AeUKSAu4PQden&#xA;fL5aHETE19H0tMdZkAkL+vm2ND04aqdVEZF6RQycjT7PD7PTph/J4/F8WvX+Aj83k8Lwr9H4K6PR&#xA;7CPVJNUVCLyVeDvyNCAAPs9OijDHSYxlOUD1n8foQdVM4xjv0BG5kuOkDeRfLbMWNu1San94/f6c&#xA;1R7F0x/h+0uzHbGoHX7AmEOh6dDex3scZFxHEIEbkSOCjiBStOmZcNFjjMTA9QFfBxZ6vJKBgT6S&#xA;b+KivlfRlS7RYSEvqG4Adt6NyFN9t/DKh2bhAkK+vnv8Ww9oZiYm/o5KVn5O8vWlwlxFbVljPJC7&#xA;swBHQ0JpkMXZOnxyEhHceZZ5e1M84mJlsUy1Cwtr+0ktLlS8ElOagkH4WDDce4zMz4I5YGEvpLiY&#xA;c0sUhKPMJfY+UdAsrlLmC2/fRmqM7M1D4gE0rmJh7K0+OQlGO48y5WbtPPkjwmWxWXXk3QLq5kuZ&#xA;oGaWZi7kSOKk7nYHI5eyNPORlIbnzLLH2rnhERB2HkEVJ5f0uTS00x4ibOM1ROTVBBJ+1WvfL5aD&#xA;EcQxEegNMdbkGQ5AfWVJvKuitpy6cYT9VST1gnNq86EVrWvQ5A9mYTj8OvTd8+rMdo5hk8S/VVcu&#xA;ibZnuC7FXYq7FUDrms2ujaZLqN3X6tC0YkIIFBJIsfIliBRedTvirH2/M7y01lPPbTpcXMDXNbJJ&#xA;YzK0VrNLAZlAJqjtDVT4MvjiqcXnmjSoNMudQt5VvY7SZbaZLdlYrM0ix8G3oCDIK17YqpaR5z8t&#xA;6penTLfULZtZiDi70xJkkmhkiPGWNwhO6PVT7q1PsmiqDX8wNFi8zXfl/UXTT7u3UvG9xKirMioJ&#xA;WZKkfZjYM1emKphbebvLlzdQWseoQGe7Zkso/VjLTlI1lb01DFvhWQVBAPtiqIuNe0a3F2Z7uOL6&#xA;iY1ug54lDMQIhQ9fUY8Vp1Ow3xVJdS/MPQ7bUbfT7N11G4nMiH6vIhWOSKe3gZZDXahuqn/VYU5b&#xA;YqmH+LtCS81C0uLgWsmmzrbTvPRELPbJdAo1SKenJ3oag7dKqofXvP3lXRJ47a91CFbx3jT6tz/e&#xA;BXlERdgK0C1PXrQgb4q3e+efL1pomo6xJcoLPTuQeRmVUkKx+ovpvUqwddwfpxVW/wAZeWXkeG31&#xA;CC6uY5JIXghkRnDwlRKGqQF4cxXkR1p1xVSsfP8A5KvpJI7TWrSVold3pKoHCMFncMaAqFBNRtQH&#xA;wOKty+dvL5ilNjdJfywy20MkcDBuD3oDQ826LVGDnvx3puKqrH/MTyLHapdya7ZR20nApM8yqpEg&#xA;LI1SR8LKvIHpx+LoQcVW6t550yy06PUrRG1SwME95NPaPGwS2tXRZ5ByZQ3p+rUqDXY032KqMfzd&#xA;5ZQuG1KANEaSLy+JSRKwBXqNraQ/JTiqje+ctGjtL2XT5F1a7sWgiksLOSJpTJdOscC/EyoodnHx&#xA;MadfDFVOPz1oa3c9pfl9MureJJZYroxgjlFJOyVieUc0jhdmFegqtV3xVLfMf5paJoHmaDQr6Jw8&#xA;xi5XIeLjGsoZjI6FvUEaLG3JwtK0XqwxVGN+YnluPU7u0nuI4ba0htJzqDSw+g4vi6whKOWJYoKb&#xA;b8h4iqqIufPnk+39Qyata8IX9O4cTR0jYglQ3xVPKlF4g1OKomLzb5YmultINUtprl2iVIYpFkYm&#xA;dS8VAtahlUsD0pviqbYq7FXYq7FXYq7FXYq7FXYqhtR0611G0a0ulLwMyOVBK7xuJF3H+UoxVIf+&#xA;Va+Thd3l4tlxub8zG7kV3BdrmRpZWO/Us9K+AA6AYqiofJeiQxXEEYmFtcskktu00jpyidHj4ciS&#xA;ix+kAqKQoHbfFURD5X0aHUDqCRMLpm5FubEV5XL9K063833+wxVINV8keT7CxupLq1vL/wCvOizI&#xA;bie4uJmQExoHkk5bKvEfEMVWaR5c8jMt7eWmqRXHBmu2vILvk0KNGE9WZ/UkEhWWB5Vklrxk5EUI&#xA;xVUn8s/ltPNrd/LNbsdcitm1eT64eDxM1bdvt8UEjD4SPtdNxtiqzTPK35aWuqNc2PoCdXkUkXHO&#xA;IvcOWli4l2BbnZsWU9KHtsFUPrOh/lLMlvqV01obZZoLiFbaekHJ5o7NZvSibhwMgjjkelKLRtq4&#xA;q3H5E8tw+aLLXItY/wBFRY9P+pzSi4ae7triS5jrczO8hlWQtVR8R40rxqpVRFhp/kHXfKVqsFwU&#xA;0fVbdbm3Rbt4pAiwCCXi0cnJCI39OUK3Umu5riqmnlL8s0nvJ4xDbSaRcyzXMnrmNLea5QciasFC&#xA;HoAfhBFP2aBVLPK3lL8vbLyw2kahrtnrlvAjerP60MKpBErxKG9KQkemLw/vGfkGYbj4AFWR6Qvk&#xA;u1Eum2MiKtjcwvIvqghZBZJLFITyNIzbxihNBscVQX+G/It1rNlbwwy3Uz2Zlt5op5Ht0t3tWsea&#xA;/Hw/ewfAWQH7KlqHjVVMNX0bydqMDfXLtVt5jI03C69JZY52ieWNyrDlHJ6acl6EbdDuqkFp+Xv5&#xA;TS6VeyJCsdlbT3dreyyXko9KUTRJKJHMux5WqU5mvEns7clUZZaF+XEPllo7ZvqlhdQ26qi3UiTx&#xA;GJBexJERJzilFfXIQ1ZjzNa1xV155a8hX2oRWsepQm6S6ikvrZrszTzNp6hgjBpSwZCg9RiCeBdT&#xA;9skKsistH0W5gW8hlN6t0to5vRL6nrCzb1IJOSfCfi3JHXFUqvvy08uzyTzwetaXdzJaPNcxTSq9&#xA;LKYSoFKupUndag9+/TFV2m/lt5cspYpysssttcfWLSs03pwhZWlijjiLsiqnPeg+I7nFXL+WPkxH&#xA;WSKxMTpJbzK0cjoRLarxicEHqOp8T16mqrKVXioWpNBSp3P04q3irsVdirsVdirsVdirsVdirsVd&#xA;irsVQ95ZRXfoeoWHoSrOnGgqyVoDUHbfFWHz/lTocHl/UNN0ktbT3ek3OkRyuE48bi0t7QPJwQcm&#xA;VbKM1928dlVM/k7oB1QamdT1Q3KxyItZ4yqSTXC3U00KmKkEkkqVJh4AVPELiqqfyi8stIJJLi8k&#xA;YLFGAXiCiGCd7mOJEWMLGiyuCBGF+yB0L8lVl7+T/ly51a21JL3ULU2XpvZ2dvLGlrFNCqrHOkBj&#xA;ZPUDRq52oxA5AgUxVXl/Kjy6dEXRoLm9s7JL5dQC2sqQszIqokUpSMetGqxqB6vJvhHxVAxVSsfy&#xA;e8p2mnQ2Ae5ljhh9Ays8aSOqwC2iJMUcYUxRCilAter8jvirvM35anUPK1/o+nahLFPfT295LNcE&#xA;HncwTLNJKWjVGRpygD8fhAHwou9VUNefk/pksVg0F9cW9xZSPL6cJjSzMlzdNc3Mq2siTRhv3rhK&#xA;124q/MLiqPm/KjytLCkX75FVXUlDGpYvaxWnJv3fxcUgVgDtWu3H4cVV9T/LvT9S1/TtcutRvmvd&#xA;PS2Sim3Ec/1SZp0aVRD+07VcRlVNFNKohVVA3X5O+Uri7v7tmulmv3aRqSIyRs8wmYxxSI8e5AWj&#xA;Kwp2xVHL+XGiLYX9ms84+v3X1szAW4aJhcPdKkaCH0SqyTPT1EZt9yaLRVAW/wCT3lm2iMNtc3kC&#xA;Nz5mNoRKyyq3qIZ/S9b03eRpCnPjU0pw+HFUH5e/KC2ttM1Gz1q5W9lvZ3eK4SNWdImMXwn6wJlP&#xA;L0AvDjxCUT4qciqzjRdL/RenxWIu7i8SEBUmu2WSWgAFCyqld99/1UAVR2KuxV2KuxV2KuxV2Kux&#xA;V//Z</xmpGImg:image>
               </rdf:li>
            </rdf:Alt>
         </xmp:Thumbnails>
      </rdf:Description>
      <rdf:Description rdf:about=""
            xmlns:xmpTPg="http://ns.adobe.com/xap/1.0/t/pg/"
            xmlns:stDim="http://ns.adobe.com/xap/1.0/sType/Dimensions#"
            xmlns:xmpG="http://ns.adobe.com/xap/1.0/g/">
         <xmpTPg:MaxPageSize rdf:parseType="Resource">
            <stDim:w>27.890391</stDim:w>
            <stDim:h>10.950563</stDim:h>
            <stDim:unit>Centimeters</stDim:unit>
         </xmpTPg:MaxPageSize>
         <xmpTPg:NPages>1</xmpTPg:NPages>
         <xmpTPg:HasVisibleTransparency>True</xmpTPg:HasVisibleTransparency>
         <xmpTPg:HasVisibleOverprint>False</xmpTPg:HasVisibleOverprint>
         <xmpTPg:PlateNames>
            <rdf:Seq>
               <rdf:li>Cyan</rdf:li>
               <rdf:li>Magenta</rdf:li>
               <rdf:li>Yellow</rdf:li>
               <rdf:li>Black</rdf:li>
            </rdf:Seq>
         </xmpTPg:PlateNames>
         <xmpTPg:SwatchGroups>
            <rdf:Seq>
               <rdf:li rdf:parseType="Resource">
                  <xmpG:groupName>Default Swatch Group</xmpG:groupName>
                  <xmpG:groupType>0</xmpG:groupType>
               </rdf:li>
            </rdf:Seq>
         </xmpTPg:SwatchGroups>
      </rdf:Description>
      <rdf:Description rdf:about=""
            xmlns:dc="http://purl.org/dc/elements/1.1/">
         <dc:format>image/svg+xml</dc:format>
      </rdf:Description>
   </rdf:RDF>
</x:xmpmeta>
                                                                                                    
                                                                                                    
                                                                                                    
                                                                                                    
                                                                                                    
                                                                                                    
                                                                                                    
                                                                                                    
                                                                                                    
                                                                                                    
                                                                                                    
                                                                                                    
                                                                                                    
                                                                                                    
                                                                                                    
                                                                                                    
                                                                                                    
                                                                                                    
                                                                                                    
                                                                                                    
                           
<?xpacket end="w"?>
	</metadata>
<g>
	<g>
		<g>
			<g>
				<g>
					
						<image overflow="visible" enable-background="new    " width="127" height="104" xlink:href="1A78833B016F431.png"  transform="matrix(1 0 0 1 332.2966 34.8867)">
					</image>
				</g>
				<path fill="#2D2D2D" d="M419.032,82.28l-36.691-24.903c-0.644-0.644-0.644-1.689,0-2.332l8.342-5.438l2.015-1.595
					c0,0,1.185-0.977,0-2.023l-0.924-0.818c-0.421-0.373-0.552-0.49-0.552-0.49l-8.791-6.249c-0.952-0.841-2.226-0.205-2.688,0.076
					l-0.95,0.621l-0.554,0.362l0,0l-23.823,15.555c-0.643,0.643-0.643,1.688,0.003,2.332l62.965,42.737
					c0.645,0.644,1.046,0,1.688-0.646L419.032,82.28z"/>
				<path fill="#F29100" d="M419.087,27.882l0.003,0.002l0.434,0.297c0.756,0.47,2.229,1.164,2.277-0.525V14.737v-2.631
					c0-2.004-1.938-0.869-2.585-0.432l-0.209,0.146l-0.004,0.004l-1.574,1.103l0,0l-9.146,6.413
					c-0.319,0.322-0.319,0.845,0.002,1.166l10.766,7.351L419.087,27.882z"/>
				
					<linearGradient id="SVGID_1_" gradientUnits="userSpaceOnUse" x1="408.7332" y1="227.6099" x2="402.0693" y2="227.6099" gradientTransform="matrix(1 0.3527 0 -1 0.1396 166.2161)">
					<stop  offset="0" style="stop-color:#1D1D1B"/>
					<stop  offset="1" style="stop-color:#1D1D1B;stop-opacity:0"/>
					<a:midPointStop  offset="0" style="stop-color:#1D1D1B"/>
					<a:midPointStop  offset="0.5" style="stop-color:#1D1D1B"/>
					<a:midPointStop  offset="1" style="stop-color:#1D1D1B;stop-opacity:0"/>
				</linearGradient>
				<path fill="url(#SVGID_1_)" d="M404.774,91.083c0,0.376-0.217,0.466-0.484,0.205l-4.198-2.986
					c-0.27-0.263-0.482-0.535-0.482-0.91V69.736c0-0.375,0.216-0.466,0.485-0.204l4.195,2.739c0.269,0.262,0.484,0.781,0.484,1.157
					V91.083z"/>
				<path fill="#F29100" d="M404.143,27.153c0-0.91,0.66-1.236,1.476-0.726l14.92,9.323c0.816,0.509,1.478,1.661,1.478,2.572v63.416
					c0,0.912-0.66,1.237-1.478,0.727l-14.92-9.807c-0.814-0.51-1.476-1.66-1.476-2.571V27.153z"/>
			</g>
		</g>
		<path fill="none" stroke="#2D2D2D" stroke-miterlimit="10" d="M450.313,107.262c0,3.259-2.642,5.902-5.9,5.902H342.327
			c-3.259,0-5.9-2.643-5.9-5.902V6.402c0-3.259,2.643-5.902,5.9-5.902h102.086c3.26,0,5.9,2.643,5.9,5.902V107.262z"/>
		<g>
			<path d="M343.667,132.86c-0.414,0.208-1.244,0.428-2.309,0.428c-2.464,0-4.319-1.569-4.319-4.436
				c0-2.737,1.855-4.591,4.565-4.591c1.09,0,1.777,0.233,2.075,0.389l-0.272,0.921c-0.428-0.208-1.038-0.363-1.764-0.363
				c-2.049,0-3.411,1.31-3.411,3.605c0,2.14,1.232,3.515,3.359,3.515c0.688,0,1.388-0.143,1.842-0.363L343.667,132.86z"/>
			<path d="M348.965,124.521c0.569-0.117,1.388-0.182,2.166-0.182c1.206,0,1.983,0.221,2.528,0.713
				c0.441,0.389,0.688,0.986,0.688,1.66c0,1.154-0.727,1.919-1.647,2.231v0.039c0.674,0.234,1.076,0.856,1.284,1.764
				c0.286,1.219,0.493,2.062,0.675,2.399h-1.167c-0.143-0.259-0.337-0.999-0.583-2.088c-0.259-1.206-0.727-1.66-1.751-1.699h-1.062
				v3.787h-1.128v-8.624H348.965z M350.094,128.502h1.153c1.206,0,1.972-0.662,1.972-1.66c0-1.128-0.817-1.622-2.011-1.634
				c-0.545,0-0.934,0.052-1.114,0.104V128.502z"/>
			<path d="M364.354,129.047h-3.398v3.152h3.787v0.947h-4.916v-8.742h4.723v0.947h-3.594v2.763h3.398V129.047L364.354,129.047z"/>
			<path d="M371.508,130.396l-0.908,2.75h-1.167l2.97-8.742h1.362l2.982,8.742h-1.207l-0.934-2.75H371.508z M374.374,129.514
				l-0.854-2.516c-0.195-0.57-0.324-1.089-0.454-1.595h-0.026c-0.13,0.519-0.271,1.051-0.439,1.583l-0.856,2.529L374.374,129.514
				L374.374,129.514z"/>
			<path d="M382.577,125.363h-2.657v-0.959h6.472v0.959h-2.672v7.782h-1.143V125.363z"/>
			<path d="M392.377,124.404v8.742h-1.13v-8.742H392.377z"/>
			<path d="M400.155,133.146l-2.854-8.742h1.22l1.361,4.306c0.376,1.18,0.699,2.244,0.934,3.268h0.026
				c0.246-1.011,0.608-2.114,0.999-3.255l1.479-4.319h1.206l-3.126,8.742H400.155z"/>
			<path d="M413.885,129.047h-3.398v3.152h3.787v0.947h-4.916v-8.742h4.722v0.947h-3.593v2.763h3.398V129.047z"/>
			<path d="M420.752,124.404v3.658h4.229v-3.658h1.141v8.742h-1.141v-4.099h-4.229v4.099h-1.13v-8.742H420.752z"/>
			<path d="M433.093,124.404v5.175c0,1.958,0.869,2.789,2.036,2.789c1.297,0,2.127-0.856,2.127-2.789v-5.175h1.142v5.097
				c0,2.685-1.414,3.787-3.308,3.787c-1.79,0-3.14-1.024-3.14-3.735v-5.149H433.093z"/>
			<path d="M444.239,124.521c0.493-0.104,1.271-0.182,2.062-0.182c1.129,0,1.854,0.194,2.398,0.636
				c0.454,0.337,0.728,0.856,0.728,1.543c0,0.843-0.559,1.582-1.479,1.919v0.026c0.83,0.208,1.804,0.895,1.804,2.192
				c0,0.752-0.3,1.323-0.739,1.751c-0.609,0.558-1.597,0.817-3.022,0.817c-0.777,0-1.374-0.052-1.751-0.104V124.521L444.239,124.521
				z M445.368,128.1h1.024c1.193,0,1.894-0.623,1.894-1.465c0-1.025-0.777-1.427-1.919-1.427c-0.52,0-0.816,0.039-0.999,0.078V128.1
				z M445.368,132.29c0.222,0.039,0.545,0.052,0.946,0.052c1.168,0,2.244-0.428,2.244-1.699c0-1.193-1.024-1.686-2.257-1.686h-0.935
				L445.368,132.29L445.368,132.29z"/>
		</g>
	</g>
	<g>
		<path fill="#FF9500" d="M0,169.02h14.914c9.428,0,14.057,5.229,14.057,14.828v30.341c0,9.6-4.629,14.827-14.057,14.827H0V169.02z
			 M9.428,177.591v42.854h5.313c3,0,4.799-1.542,4.799-5.828v-31.197c0-4.285-1.8-5.828-4.799-5.828H9.428L9.428,177.591z"/>
		<path fill="#FF9500" d="M44.398,194.304H57.34v8.57H44.398v17.569h16.285v8.571H34.97V169.02h25.713v8.571H44.398V194.304z"/>
		<path fill="#FF9500" d="M79.196,168.333c9.171,0,13.885,5.485,13.885,15.086v1.886h-8.914v-2.486c0-4.284-1.714-5.913-4.714-5.913
			s-4.714,1.627-4.714,5.913c0,4.371,1.886,7.628,8.057,13.028c7.886,6.941,10.371,11.912,10.371,18.77
			c0,9.6-4.799,15.086-14.056,15.086c-9.256,0-14.056-5.486-14.056-15.086v-3.686h8.914v4.285c0,4.285,1.886,5.828,4.886,5.828
			s4.885-1.543,4.885-5.828c0-4.37-1.886-7.627-8.057-13.027c-7.886-6.941-10.371-11.913-10.371-18.77
			C65.312,173.82,70.025,168.333,79.196,168.333z"/>
		<path fill="#FF9500" d="M98.567,169.02h9.428v59.996h-9.428V169.02z"/>
		<path fill="#FF9500" d="M128.994,195.589h13.199v19.027c0,9.6-4.8,15.084-14.056,15.084c-9.258,0-14.058-5.484-14.058-15.084
			v-31.197c0-9.601,4.8-15.086,14.058-15.086c9.256,0,14.056,5.485,14.056,15.086v5.828h-8.914v-6.43
			c0-4.285-1.885-5.914-4.885-5.914s-4.886,1.629-4.886,5.914v32.398c0,4.285,1.887,5.828,4.886,5.828c3,0,4.885-1.543,4.885-5.828
			V204.16h-4.285V195.589z"/>
		<path fill="#FF9500" d="M156.85,185.562h-0.171v43.454h-8.485V169.02h11.828l9.514,35.912h0.171V169.02h8.399v59.996h-9.686
			L156.85,185.562z"/>
		<path fill="#FF9500" d="M194.305,194.304h12.941v8.57h-12.941v17.569h16.284v8.571h-25.713V169.02h25.713v8.571h-16.284V194.304z"
			/>
		<path fill="#FF9500" d="M236.132,229.016c-0.514-1.543-0.856-2.485-0.856-7.371v-9.429c0-5.57-1.886-7.627-6.171-7.627h-3.257
			v24.427h-9.429V169.02h14.229c9.771,0,13.971,4.542,13.971,13.799v4.714c0,6.172-1.971,10.114-6.171,12.086v0.172
			c4.714,1.972,6.257,6.428,6.257,12.685v9.257c0,2.914,0.085,5.057,1.028,7.285L236.132,229.016L236.132,229.016z M225.847,177.591
			v18.427h3.686c3.514,0,5.657-1.543,5.657-6.343v-5.913c0-4.286-1.457-6.171-4.8-6.171H225.847z"/>
		<path fill="#FF9500" d="M294.672,229.016h-9.514l-1.628-10.886h-11.57l-1.629,10.886h-8.656l9.6-59.996h13.799L294.672,229.016z
			 M273.159,209.99h9.085l-4.457-30.342h-0.171L273.159,209.99z"/>
		<path fill="#FF9500" d="M307.615,185.562h-0.171v43.454h-8.484V169.02h11.827l9.515,35.912h0.171V169.02h8.398v59.996h-9.685
			L307.615,185.562z"/>
		<path fill="#FF9500" d="M335.643,169.02h14.914c9.428,0,14.056,5.229,14.056,14.828v30.341c0,9.6-4.628,14.827-14.056,14.827
			h-14.914V169.02z M345.071,177.591v42.854h5.313c3,0,4.8-1.542,4.8-5.828v-31.197c0-4.285-1.8-5.828-4.8-5.828H345.071
			L345.071,177.591z"/>
		<path fill="#FF9500" d="M393.326,195.675h12.171v8.57h-12.171v24.771h-9.428V169.02h24.94v8.571h-15.514L393.326,195.675
			L393.326,195.675z"/>
		<path fill="#FF9500" d="M433.095,229.016c-0.516-1.543-0.857-2.485-0.857-7.371v-9.429c0-5.57-1.886-7.627-6.171-7.627h-3.257
			v24.427h-9.428V169.02h14.228c9.771,0,13.971,4.542,13.971,13.799v4.714c0,6.172-1.972,10.114-6.172,12.086v0.172
			c4.714,1.972,6.258,6.428,6.258,12.685v9.257c0,2.914,0.086,5.057,1.027,7.285L433.095,229.016L433.095,229.016z M422.81,177.591
			v18.427h3.686c3.515,0,5.656-1.543,5.656-6.343v-5.913c0-4.286-1.457-6.171-4.8-6.171H422.81z"/>
		<path fill="#FF9500" d="M447.067,183.419c0-9.601,5.057-15.086,14.313-15.086c9.256,0,14.312,5.485,14.312,15.086v31.197
			c0,9.6-5.057,15.084-14.312,15.084c-9.258,0-14.313-5.484-14.313-15.084V183.419z M456.495,215.216
			c0,4.285,1.887,5.914,4.887,5.914c2.999,0,4.885-1.629,4.885-5.914v-32.397c0-4.284-1.886-5.913-4.885-5.913
			c-3,0-4.887,1.627-4.887,5.913V215.216z"/>
		<path fill="#FF9500" d="M490.35,185.562h-0.171v43.454h-8.485V169.02h11.828l9.513,35.912h0.173V169.02h8.398v59.996h-9.685
			L490.35,185.562z"/>
		<path fill="#FF9500" d="M515.635,169.02h29.141v8.571h-9.856v51.425h-9.428v-51.425h-9.855L515.635,169.02L515.635,169.02z"/>
		<path fill="#FF9500" d="M545.719,194.733h17.142v8.569h-17.142V194.733z"/>
		<path fill="#FF9500" d="M578.717,194.304h12.94v8.57h-12.94v17.569h16.284v8.571h-25.713V169.02h25.713v8.571h-16.284V194.304z"/>
		<path fill="#FF9500" d="M609.401,185.562h-0.171v43.454h-8.485V169.02h11.828l9.514,35.912h0.172V169.02h8.398v59.996h-9.685
			L609.401,185.562z"/>
		<path fill="#FF9500" d="M637.428,169.02h14.913c9.428,0,14.056,5.229,14.056,14.828v30.341c0,9.6-4.628,14.827-14.056,14.827
			h-14.913V169.02L637.428,169.02z M646.856,177.591v42.854h5.313c3,0,4.8-1.542,4.8-5.828v-31.197c0-4.285-1.8-5.828-4.8-5.828
			H646.856L646.856,177.591z"/>
		<path fill="#FF9500" d="M685.684,169.02h14.913c9.428,0,14.056,5.229,14.056,14.828v30.341c0,9.6-4.628,14.827-14.056,14.827
			h-14.913V169.02z M695.112,177.591v42.854h5.313c3,0,4.8-1.542,4.8-5.828v-31.197c0-4.285-1.8-5.828-4.8-5.828H695.112
			L695.112,177.591z"/>
		<path fill="#FF9500" d="M730.081,194.304h12.941v8.57h-12.941v17.569h16.284v8.571h-25.712V169.02h25.712v8.571h-16.284V194.304z"
			/>
		<path fill="#FF9500" d="M766.337,217.958h0.171l7.113-48.938h8.656l-9.256,59.996h-14.057l-9.257-59.996h9.514L766.337,217.958z"
			/>
		<path fill="#FF9500" d="M790.594,219.931v9.085h-9.085v-9.085H790.594z"/>
	</g>
	<g>
		<path d="M127.244,270.503h-6.794v7.44c0,0.334-0.268,0.49-0.557,0.49c-0.268,0-0.558-0.156-0.558-0.49v-15.327
			c0-0.334,0.29-0.468,0.558-0.468c0.29,0,0.557,0.134,0.557,0.468v6.861h6.794v-6.861c0-0.334,0.29-0.468,0.557-0.468
			c0.29,0,0.558,0.134,0.558,0.468v15.327c0,0.334-0.268,0.49-0.558,0.49c-0.268,0-0.557-0.156-0.557-0.49V270.503z"/>
		<path d="M139.21,271.819c0,1.671-0.936,1.716-1.894,1.716h-5.168v0.936c0,1.916,1.515,3.097,3.586,3.097
			c1.827,0,2.183-0.892,2.651-0.892c0.267,0,0.512,0.312,0.512,0.535c0,0.467-1.226,1.358-3.208,1.358
			c-2.718,0-4.634-1.647-4.634-4.12v-2.652c0-2.184,1.849-4.01,4.099-4.01C137.316,267.787,139.21,269.479,139.21,271.819z
			 M136.893,272.621c1.002,0,1.248-0.134,1.248-0.802c0-1.517-1.203-3.053-2.985-3.053c-1.693,0-3.007,1.358-3.007,2.94v0.914
			H136.893L136.893,272.621z"/>
		<path d="M142.776,261.837v16.106c0,0.245-0.245,0.49-0.557,0.49c-0.312,0-0.535-0.245-0.535-0.49v-16.106
			c0-0.268,0.223-0.467,0.535-0.467C142.531,261.371,142.776,261.572,142.776,261.837z"/>
		<path d="M147.165,261.837v16.106c0,0.245-0.245,0.49-0.557,0.49c-0.312,0-0.535-0.245-0.535-0.49v-16.106
			c0-0.268,0.223-0.467,0.535-0.467C146.92,261.371,147.165,261.572,147.165,261.837z"/>
		<path d="M158.038,271.863v2.586c0,2.159-1.916,4.12-4.099,4.12c-2.184,0-4.077-1.938-4.077-4.12v-2.586
			c0-2.183,1.849-4.076,4.077-4.076C156.122,267.787,158.038,269.613,158.038,271.863z M156.946,271.863
			c0-1.537-1.336-3.052-3.007-3.052s-2.985,1.515-2.985,3.052v2.586c0,1.58,1.314,3.096,2.985,3.096
			c1.647,0,3.007-1.516,3.007-3.096V271.863z"/>
		<path d="M161.827,277.677c0,0.156-0.021,0.424-0.78,2.295c-0.066,0.156-0.223,0.244-0.379,0.244c-0.223,0-0.444-0.133-0.444-0.355
			c0-0.066,0-0.111,0.021-0.199l0.423-1.138c-0.378-0.11-0.646-0.468-0.646-0.868c0-0.49,0.379-0.914,0.891-0.914
			C161.359,276.742,161.827,277.076,161.827,277.677z"/>
		<path d="M169.001,262.619c0-0.334,0.29-0.469,0.558-0.469c0.29,0,0.557,0.135,0.557,0.469v15.326c0,0.334-0.268,0.49-0.557,0.49
			c-0.269,0-0.558-0.156-0.558-0.49V262.619z"/>
		<path d="M174.037,261.75l-0.223,3.342c0,0.223-0.133,0.468-0.423,0.468s-0.379-0.245-0.379-0.468l-0.224-3.342
			c0-0.244,0.334-0.424,0.603-0.424C173.658,261.326,174.037,261.503,174.037,261.75z"/>
		<path d="M182.792,271.774c0-1.692-1.226-2.963-2.718-2.963c-1.403,0-2.829,1.136-2.829,3.052v6.082c0,0.245-0.245,0.49-0.557,0.49
			c-0.312,0-0.535-0.245-0.535-0.49v-9.578c0-0.269,0.223-0.445,0.535-0.445c0.29,0,0.535,0.178,0.535,0.445v1.112
			c0.489-0.868,1.492-1.692,2.984-1.692s2.673,0.914,3.252,2.229c0.78-1.516,2.095-2.229,3.387-2.229
			c1.894,0,3.697,1.471,3.697,4.076v6.082c0,0.245-0.245,0.49-0.557,0.49c-0.29,0-0.535-0.245-0.535-0.49v-6.082
			c0-2.027-1.426-3.052-2.74-3.052c-1.403,0-2.83,1.157-2.83,2.94v6.215c0,0.334-0.267,0.469-0.557,0.469
			c-0.245,0-0.534-0.135-0.534-0.469L182.792,271.774L182.792,271.774z"/>
		<path d="M201.443,263.218c-0.312,0-0.468-0.268-0.468-0.557c0-0.244,0.134-0.513,0.468-0.513h3.921
			c0.267,0,0.535,0.156,0.535,0.49v11.25c0,3.409-1.96,4.679-4.456,4.679c-2.785,0-4.522-1.626-4.522-3.787
			c0-0.445,0.224-0.578,0.558-0.578c0.267,0,0.557,0.133,0.557,0.467c0.022,1.85,1.448,2.83,3.386,2.83
			c2.117,0,3.364-1.138,3.364-3.609v-10.672H201.443z"/>
		<path d="M210.155,277.945c0,0.245-0.245,0.49-0.557,0.49c-0.312,0-0.535-0.245-0.535-0.49v-16.105
			c0-0.268,0.223-0.469,0.535-0.469c0.312,0,0.557,0.201,0.557,0.469v7.641c0.468-0.868,1.47-1.691,2.963-1.691
			c2.161,0,3.988,1.826,3.988,4.076v6.082c0,0.334-0.29,0.489-0.558,0.489c-0.267,0-0.534-0.155-0.534-0.489v-6.082
			c0-1.537-1.359-3.053-2.985-3.053c-1.426,0-2.874,1.137-2.874,3.053V277.945z"/>
		<path d="M227.69,271.863v2.586c0,2.159-1.916,4.12-4.1,4.12c-2.183,0-4.076-1.938-4.076-4.12v-2.586
			c0-2.183,1.849-4.076,4.076-4.076C225.774,267.787,227.69,269.613,227.69,271.863z M226.598,271.863
			c0-1.537-1.336-3.052-3.008-3.052c-1.671,0-2.984,1.515-2.984,3.052v2.586c0,1.58,1.313,3.096,2.984,3.096
			c1.648,0,3.008-1.516,3.008-3.096V271.863z"/>
		<path d="M231.301,268.367v11.094c0,2.474-0.734,4.211-2.829,4.211c-0.356,0-0.558-0.269-0.558-0.535
			c0-0.289,0.224-0.489,0.512-0.489c1.561,0,1.782-1.358,1.782-3.187v-11.094c0-0.269,0.224-0.445,0.535-0.445
			C231.056,267.919,231.301,268.098,231.301,268.367z M231.568,263.776c0,0.446-0.378,0.824-0.824,0.824
			c-0.49,0-0.847-0.378-0.847-0.824c0-0.423,0.355-0.778,0.847-0.778C231.189,262.998,231.568,263.353,231.568,263.776z"/>
		<path d="M241.995,271.863v2.586c0,2.159-1.916,4.12-4.099,4.12c-2.185,0-4.077-1.938-4.077-4.12v-2.586
			c0-2.183,1.849-4.076,4.077-4.076C240.079,267.787,241.995,269.613,241.995,271.863z M240.903,271.863
			c0-1.537-1.336-3.052-3.007-3.052s-2.985,1.515-2.985,3.052v2.586c0,1.58,1.314,3.096,2.985,3.096
			c1.647,0,3.007-1.516,3.007-3.096V271.863z"/>
		<path d="M245.784,277.677c0,0.156-0.021,0.424-0.78,2.295c-0.066,0.156-0.223,0.244-0.379,0.244c-0.223,0-0.444-0.133-0.444-0.355
			c0-0.066,0-0.111,0.021-0.199l0.423-1.138c-0.378-0.11-0.646-0.468-0.646-0.868c0-0.49,0.379-0.914,0.891-0.914
			C245.316,276.742,245.784,277.076,245.784,277.677z"/>
		<path d="M259.419,272.064v5.881c0,0.268-0.223,0.49-0.535,0.49c-0.289,0-0.534-0.223-0.534-0.49v-1.068
			c-0.759,0.869-1.872,1.692-3.343,1.692c-1.715,0-3.073-0.937-3.073-2.94c0-2.383,2.094-2.984,5.189-2.984h1.203v-0.579
			c0-1.56-0.78-3.274-2.807-3.274c-1.427,0-2.027,0.623-2.339,0.623c-0.312,0-0.49-0.379-0.49-0.602c0-0.49,1.493-1.023,2.874-1.023
			C258.417,267.787,259.419,269.858,259.419,272.064z M258.328,273.535h-1.092c-2.183,0-4.21,0.2-4.21,2.049
			c0,1.381,0.936,2.006,2.139,2.006c1.561,0,3.164-1.426,3.164-2.406L258.328,273.535L258.328,273.535z"/>
		<path d="M271.853,275.875c0-3.23-5.547-1.449-5.547-5.146c0-1.359,0.979-2.939,3.386-2.939c1.381,0,2.852,0.512,2.852,1.002
			c0,0.199-0.223,0.578-0.489,0.578c-0.312,0-1.003-0.602-2.34-0.602c-1.76,0-2.384,1.113-2.384,1.938
			c0,2.764,5.569,1.024,5.569,5.103c0,1.716-1.271,2.763-3.476,2.763c-2.05,0-3.363-0.912-3.363-1.515c0-0.224,0.2-0.513,0.4-0.513
			c0.445,0,0.892,1.047,2.94,1.047C271.185,277.587,271.853,276.787,271.853,275.875z"/>
		<path d="M282.927,271.819c0,1.671-0.937,1.716-1.895,1.716h-5.168v0.936c0,1.916,1.515,3.097,3.586,3.097
			c1.827,0,2.183-0.892,2.651-0.892c0.267,0,0.512,0.312,0.512,0.535c0,0.467-1.225,1.358-3.208,1.358
			c-2.718,0-4.634-1.647-4.634-4.12v-2.652c0-2.184,1.849-4.01,4.099-4.01C281.033,267.787,282.927,269.479,282.927,271.819z
			 M280.61,272.621c1.002,0,1.248-0.134,1.248-0.802c0-1.517-1.203-3.053-2.985-3.053c-1.692,0-3.007,1.358-3.007,2.94v0.914H280.61
			L280.61,272.621z"/>
		<path d="M286.493,261.837v16.106c0,0.245-0.245,0.49-0.557,0.49c-0.312,0-0.535-0.245-0.535-0.49v-16.106
			c0-0.268,0.223-0.467,0.535-0.467C286.248,261.371,286.493,261.572,286.493,261.837z"/>
		<path d="M290.704,267.919h3.297c0.269,0,0.469,0.224,0.469,0.469c0,0.268-0.201,0.488-0.469,0.488h-3.297v9.09
			c0,0.289-0.268,0.469-0.579,0.469c-0.29,0-0.513-0.18-0.513-0.469v-12.563c0-2.185,1.827-4.032,3.965-4.032h0.379
			c0.29,0,0.514,0.246,0.514,0.535s-0.224,0.489-0.514,0.489h-0.29c-1.692,0-2.94,1.403-2.963,2.963L290.704,267.919
			L290.704,267.919z"/>
		<path d="M295.272,272.576h5.792c0.245,0,0.468,0.223,0.468,0.514c0,0.289-0.223,0.49-0.468,0.49h-5.792
			c-0.269,0-0.468-0.201-0.468-0.49C294.804,272.798,295.005,272.576,295.272,272.576z"/>
		<path d="M305.143,275.25c0,1.582,0.602,2.162,2.294,2.162h0.557c0.312,0,0.513,0.223,0.513,0.512c0,0.268-0.201,0.513-0.513,0.513
			h-0.557c-2.206,0-3.386-0.958-3.386-3.187v-11.963c0-0.268,0.29-0.469,0.535-0.469c0.29,0,0.557,0.201,0.557,0.469v4.635h2.963
			c0.223,0,0.423,0.223,0.423,0.488c0,0.246-0.201,0.469-0.423,0.469h-2.963V275.25L305.143,275.25z"/>
		<path d="M317.175,272.064v5.881c0,0.268-0.224,0.49-0.535,0.49c-0.29,0-0.535-0.223-0.535-0.49v-1.068
			c-0.758,0.869-1.872,1.692-3.342,1.692c-1.715,0-3.074-0.937-3.074-2.94c0-2.383,2.094-2.984,5.19-2.984h1.202v-0.579
			c0-1.56-0.779-3.274-2.807-3.274c-1.426,0-2.027,0.623-2.339,0.623c-0.312,0-0.49-0.379-0.49-0.602
			c0-0.49,1.493-1.023,2.874-1.023C316.172,267.787,317.175,269.858,317.175,272.064z M316.083,273.535h-1.092
			c-2.183,0-4.21,0.2-4.21,2.049c0,1.381,0.937,2.006,2.14,2.006c1.56,0,3.164-1.426,3.164-2.406v-1.648H316.083z"/>
		<path d="M319.916,274.492v-6.104c0-0.245,0.245-0.469,0.558-0.469c0.267,0,0.535,0.224,0.535,0.469v6.104
			c0,1.561,1.313,3.053,2.984,3.053s2.985-1.471,2.985-3.053v-6.125c0-0.246,0.268-0.445,0.557-0.445
			c0.312,0,0.535,0.199,0.535,0.445v6.125c0,2.184-1.849,4.077-4.077,4.077C321.743,278.569,319.916,276.653,319.916,274.492z"/>
		<path d="M332.55,275.628c-0.401,0.199-0.803,0.445-0.803,0.979c0,2.139,6.995-0.066,6.995,3.967c0,2.004-1.715,3.096-4.276,3.096
			c-2.584,0-4.411-1.137-4.411-2.918c0-1.336,0.979-2.094,1.961-2.451c-0.758-0.244-1.292-0.645-1.292-1.559
			c0-0.824,0.423-1.248,1.092-1.582c-0.735-0.646-1.181-1.648-1.181-2.808v-0.913c0-2.139,1.47-3.652,3.697-3.652
			c1.069,0,1.983,0.355,2.63,1.002c0.423-0.824,1.092-1.381,1.626-1.381c0.4,0,0.579,0.268,0.579,0.512
			c0,0.268-0.201,0.424-0.401,0.445c-0.356,0.021-0.892,0.245-1.292,1.002c0.4,0.535,0.579,1.293,0.579,2.072v0.913
			c0,2.116-1.537,3.698-3.743,3.698C333.664,276.05,333.062,275.917,332.55,275.628z M333.307,278.569
			c-1.114,0.334-2.185,0.913-2.185,2.071c0,1.271,1.248,2.139,3.343,2.139c2.05,0,3.186-0.846,3.186-2.16
			C337.651,278.615,334.711,278.748,333.307,278.569z M336.983,271.44c0-1.56-0.979-2.739-2.651-2.739
			c-1.67,0-2.628,1.18-2.628,2.739v0.892c0,1.604,0.98,2.808,2.651,2.808c1.626,0,2.629-1.181,2.629-2.785L336.983,271.44
			L336.983,271.44z"/>
		<path d="M341.975,277.945c0,0.245-0.245,0.49-0.557,0.49c-0.312,0-0.535-0.245-0.535-0.49v-16.105
			c0-0.268,0.223-0.469,0.535-0.469c0.312,0,0.557,0.201,0.557,0.469v7.641c0.468-0.868,1.47-1.691,2.963-1.691
			c2.161,0,3.988,1.826,3.988,4.076v6.082c0,0.334-0.29,0.489-0.558,0.489c-0.267,0-0.534-0.155-0.534-0.489v-6.082
			c0-1.537-1.359-3.053-2.985-3.053c-1.426,0-2.874,1.137-2.874,3.053V277.945L341.975,277.945z"/>
		<path d="M352.804,275.25c0,1.582,0.602,2.162,2.294,2.162h0.557c0.312,0,0.512,0.223,0.512,0.512c0,0.268-0.2,0.513-0.512,0.513
			h-0.557c-2.206,0-3.386-0.958-3.386-3.187v-11.963c0-0.268,0.29-0.469,0.534-0.469c0.29,0,0.558,0.201,0.558,0.469v4.635h2.963
			c0.223,0,0.423,0.223,0.423,0.488c0,0.246-0.201,0.469-0.423,0.469h-2.963V275.25L352.804,275.25z"/>
		<path d="M370.205,261.837v16.106c0,0.245-0.223,0.49-0.534,0.49c-0.289,0-0.534-0.245-0.534-0.49v-1.069
			c-0.49,0.914-1.671,1.693-3.03,1.693c-2.116,0-3.965-1.961-3.965-4.121v-2.585c0-2.25,1.827-4.075,4.01-4.075
			c1.471,0,2.473,0.823,2.963,1.691v-7.641c0-0.269,0.245-0.469,0.557-0.469C369.982,261.371,370.205,261.572,370.205,261.837z
			 M363.232,274.449c0,1.58,1.359,3.096,2.963,3.096c1.671,0,2.918-1.627,2.918-2.34v-3.342c0-1.916-1.471-3.052-2.896-3.052
			c-1.648,0-2.985,1.515-2.985,3.052V274.449L363.232,274.449z"/>
		<path d="M380.9,271.819c0,1.671-0.936,1.716-1.893,1.716h-5.169v0.936c0,1.916,1.515,3.097,3.587,3.097
			c1.825,0,2.183-0.892,2.649-0.892c0.269,0,0.514,0.312,0.514,0.535c0,0.467-1.227,1.358-3.208,1.358
			c-2.719,0-4.635-1.647-4.635-4.12v-2.652c0-2.184,1.85-4.01,4.1-4.01C379.008,267.787,380.9,269.479,380.9,271.819z
			 M378.583,272.621c1.003,0,1.248-0.134,1.248-0.802c0-1.517-1.202-3.053-2.985-3.053c-1.692,0-3.007,1.358-3.007,2.94v0.914
			H378.583L378.583,272.621z"/>
		<path d="M388.32,275.875c0-3.23-5.547-1.449-5.547-5.146c0-1.359,0.98-2.939,3.387-2.939c1.382,0,2.853,0.512,2.853,1.002
			c0,0.199-0.224,0.578-0.49,0.578c-0.312,0-1.003-0.602-2.34-0.602c-1.76,0-2.383,1.113-2.383,1.938
			c0,2.764,5.567,1.024,5.567,5.103c0,1.716-1.27,2.763-3.475,2.763c-2.05,0-3.364-0.912-3.364-1.515c0-0.224,0.2-0.513,0.401-0.513
			c0.444,0,0.891,1.047,2.939,1.047C387.652,277.587,388.32,276.787,388.32,275.875z"/>
		<path d="M393.001,263.776c0,0.446-0.379,0.824-0.824,0.824c-0.489,0-0.847-0.378-0.847-0.824c0-0.423,0.356-0.778,0.847-0.778
			C392.622,262.998,393.001,263.353,393.001,263.776z M392.733,268.367v9.578c0,0.245-0.245,0.49-0.558,0.49
			s-0.534-0.245-0.534-0.49v-9.578c0-0.269,0.223-0.445,0.534-0.445C392.488,267.919,392.733,268.098,392.733,268.367z"/>
		<path d="M397.323,275.628c-0.4,0.199-0.802,0.445-0.802,0.979c0,2.139,6.995-0.066,6.995,3.967c0,2.004-1.715,3.096-4.277,3.096
			c-2.584,0-4.411-1.137-4.411-2.918c0-1.336,0.98-2.094,1.961-2.451c-0.758-0.244-1.293-0.645-1.293-1.559
			c0-0.824,0.425-1.248,1.093-1.582c-0.734-0.646-1.181-1.648-1.181-2.808v-0.913c0-2.139,1.471-3.652,3.697-3.652
			c1.069,0,1.983,0.355,2.629,1.002c0.424-0.824,1.092-1.381,1.626-1.381c0.401,0,0.58,0.268,0.58,0.512
			c0,0.268-0.201,0.424-0.401,0.445c-0.355,0.021-0.892,0.245-1.292,1.002c0.4,0.535,0.579,1.293,0.579,2.072v0.913
			c0,2.116-1.537,3.698-3.741,3.698C398.437,276.05,397.836,275.917,397.323,275.628z M398.081,278.569
			c-1.113,0.334-2.184,0.913-2.184,2.071c0,1.271,1.248,2.139,3.342,2.139c2.05,0,3.187-0.846,3.187-2.16
			C402.425,278.615,399.484,278.748,398.081,278.569z M401.757,271.44c0-1.56-0.98-2.739-2.651-2.739
			c-1.67,0-2.629,1.18-2.629,2.739v0.892c0,1.604,0.979,2.808,2.651,2.808c1.626,0,2.629-1.181,2.629-2.785V271.44z"/>
		<path d="M406.748,277.945c0,0.245-0.243,0.49-0.557,0.49c-0.312,0-0.534-0.245-0.534-0.49v-9.578c0-0.269,0.224-0.445,0.534-0.445
			c0.29,0,0.535,0.178,0.535,0.445v1.112c0.468-0.868,1.492-1.692,2.984-1.692c2.16,0,3.987,1.826,3.987,4.076v6.082
			c0,0.334-0.29,0.49-0.557,0.49c-0.269,0-0.535-0.156-0.535-0.49v-6.082c0-1.537-1.358-3.052-2.985-3.052
			c-1.426,0-2.874,1.136-2.874,3.052L406.748,277.945L406.748,277.945z"/>
		<path d="M424.283,271.819c0,1.671-0.936,1.716-1.894,1.716h-5.168v0.936c0,1.916,1.515,3.097,3.587,3.097
			c1.826,0,2.183-0.892,2.649-0.892c0.269,0,0.514,0.312,0.514,0.535c0,0.467-1.227,1.358-3.208,1.358
			c-2.718,0-4.634-1.647-4.634-4.12v-2.652c0-2.184,1.849-4.01,4.099-4.01C422.389,267.787,424.283,269.479,424.283,271.819z
			 M421.967,272.621c1.002,0,1.247-0.134,1.247-0.802c0-1.517-1.202-3.053-2.985-3.053c-1.692,0-3.007,1.358-3.007,2.94v0.914
			H421.967L421.967,272.621z"/>
		<path d="M430.678,268.811c-1.516,0-3.008,1.226-3.008,3.253v5.881c0,0.245-0.245,0.49-0.558,0.49c-0.312,0-0.534-0.245-0.534-0.49
			v-9.578c0-0.269,0.224-0.445,0.534-0.445c0.29,0,0.535,0.178,0.535,0.445v1.135c0.489-0.867,1.537-1.715,3.029-1.715h0.802
			c0.268,0,0.49,0.223,0.49,0.512c0,0.291-0.224,0.514-0.49,0.514L430.678,268.811L430.678,268.811z"/>
		<path d="M439.235,267.919h3.298c0.268,0,0.468,0.224,0.468,0.469c0,0.268-0.2,0.488-0.468,0.488h-3.298v9.09
			c0,0.289-0.267,0.469-0.579,0.469c-0.289,0-0.512-0.18-0.512-0.469v-12.563c0-2.185,1.826-4.032,3.965-4.032h0.379
			c0.29,0,0.513,0.246,0.513,0.535s-0.223,0.489-0.513,0.489h-0.289c-1.692,0-2.94,1.403-2.964,2.963V267.919z"/>
		<path d="M448.838,268.811c-1.516,0-3.009,1.226-3.009,3.253v5.881c0,0.245-0.243,0.49-0.557,0.49c-0.312,0-0.534-0.245-0.534-0.49
			v-9.578c0-0.269,0.224-0.445,0.534-0.445c0.29,0,0.535,0.178,0.535,0.445v1.135c0.49-0.867,1.537-1.715,3.029-1.715h0.802
			c0.268,0,0.49,0.223,0.49,0.512c0,0.291-0.224,0.514-0.49,0.514L448.838,268.811L448.838,268.811z"/>
		<path d="M459.109,271.863v2.586c0,2.159-1.916,4.12-4.099,4.12c-2.185,0-4.077-1.938-4.077-4.12v-2.586
			c0-2.183,1.85-4.076,4.077-4.076C457.193,267.787,459.109,269.613,459.109,271.863z M458.018,271.863
			c0-1.537-1.337-3.052-3.008-3.052s-2.985,1.515-2.985,3.052v2.586c0,1.58,1.314,3.096,2.985,3.096
			c1.647,0,3.008-1.516,3.008-3.096V271.863z"/>
		<path d="M468.267,271.774c0-1.692-1.227-2.963-2.718-2.963c-1.404,0-2.83,1.136-2.83,3.052v6.082c0,0.245-0.245,0.49-0.558,0.49
			c-0.312,0-0.533-0.245-0.533-0.49v-9.578c0-0.269,0.223-0.445,0.533-0.445c0.29,0,0.535,0.178,0.535,0.445v1.112
			c0.489-0.868,1.492-1.692,2.985-1.692c1.492,0,2.673,0.914,3.252,2.229c0.78-1.516,2.094-2.229,3.387-2.229
			c1.895,0,3.697,1.471,3.697,4.076v6.082c0,0.245-0.244,0.49-0.557,0.49c-0.289,0-0.534-0.245-0.534-0.49v-6.082
			c0-2.027-1.426-3.052-2.74-3.052c-1.403,0-2.829,1.157-2.829,2.94v6.215c0,0.334-0.268,0.469-0.558,0.469
			c-0.245,0-0.534-0.135-0.534-0.469L468.267,271.774L468.267,271.774z"/>
		<path d="M488.099,262.15c2.517,0,4.5,1.27,4.5,4.68v6.928c0,3.408-1.983,4.679-4.5,4.679h-3.943c-0.312,0-0.535-0.224-0.535-0.468
			v-15.35c0-0.246,0.224-0.469,0.535-0.469H488.099z M484.735,263.218v14.146h3.364c2.116,0,3.386-1.136,3.386-3.609v-6.928
			c0-2.473-1.27-3.609-3.386-3.609H484.735z"/>
		<path d="M502.314,272.064v5.881c0,0.268-0.223,0.49-0.535,0.49c-0.289,0-0.534-0.223-0.534-0.49v-1.068
			c-0.758,0.869-1.871,1.692-3.342,1.692c-1.716,0-3.074-0.937-3.074-2.94c0-2.383,2.095-2.984,5.19-2.984h1.203v-0.579
			c0-1.56-0.779-3.274-2.808-3.274c-1.426,0-2.026,0.623-2.34,0.623c-0.312,0-0.489-0.379-0.489-0.602
			c0-0.49,1.492-1.023,2.874-1.023C501.311,267.787,502.314,269.858,502.314,272.064z M501.222,273.535h-1.092
			c-2.184,0-4.21,0.2-4.21,2.049c0,1.381,0.936,2.006,2.139,2.006c1.56,0,3.163-1.426,3.163-2.406V273.535z"/>
		<path d="M504.032,268.746c-0.021-0.068-0.089-0.246-0.089-0.336c0-0.289,0.312-0.512,0.623-0.512c0.179,0,0.379,0.089,0.446,0.268
			l3.052,8.422l3.052-8.289c0.089-0.223,0.156-0.399,0.446-0.399c0.267,0,0.646,0.2,0.646,0.49c0,0.133-0.066,0.267-0.09,0.356
			l-3.521,9.533c-0.089,0.18-0.289,0.312-0.534,0.312s-0.424-0.111-0.513-0.312L504.032,268.746z"/>
		<path d="M520.831,272.064v5.881c0,0.268-0.223,0.49-0.534,0.49c-0.289,0-0.534-0.223-0.534-0.49v-1.068
			c-0.758,0.869-1.871,1.692-3.342,1.692c-1.717,0-3.074-0.937-3.074-2.94c0-2.383,2.094-2.984,5.189-2.984h1.203v-0.579
			c0-1.56-0.778-3.274-2.807-3.274c-1.426,0-2.027,0.623-2.34,0.623s-0.49-0.379-0.49-0.602c0-0.49,1.493-1.023,2.874-1.023
			C519.828,267.787,520.831,269.858,520.831,272.064z M519.739,273.535h-1.092c-2.183,0-4.21,0.2-4.21,2.049
			c0,1.381,0.936,2.006,2.139,2.006c1.56,0,3.163-1.426,3.163-2.406V273.535z"/>
		<path d="M531.436,271.863v2.586c0,2.159-1.915,4.12-4.099,4.12c-2.185,0-4.077-1.938-4.077-4.12v-2.586
			c0-2.183,1.85-4.076,4.077-4.076C529.521,267.787,531.436,269.613,531.436,271.863z M530.345,271.863
			c0-1.537-1.337-3.052-3.008-3.052c-1.672,0-2.985,1.515-2.985,3.052v2.586c0,1.58,1.314,3.096,2.985,3.096
			c1.647,0,3.008-1.516,3.008-3.096V271.863z"/>
		<path d="M543.091,263.218c-2.229,0-3.432,1.138-3.432,3.609v7.062c0,2.494,1.203,3.609,3.498,3.609
			c2.808,0,3.074-1.717,3.252-2.83c0.022-0.268,0.156-0.467,0.535-0.467s0.579,0.133,0.579,0.756c0,1.851-1.604,3.609-4.5,3.609
			c-2.451,0-4.478-1.27-4.478-4.679v-7.062c0-3.41,2.07-4.68,4.544-4.68c2.874,0,4.434,1.736,4.434,3.609
			c0,0.602-0.2,0.734-0.557,0.734c-0.446,0-0.559-0.244-0.559-0.469C546.344,265.001,545.853,263.218,543.091,263.218z"/>
		<path d="M551.292,263.776c0,0.446-0.38,0.824-0.824,0.824c-0.49,0-0.848-0.378-0.848-0.824c0-0.423,0.356-0.778,0.848-0.778
			C550.912,262.998,551.292,263.353,551.292,263.776z M551.023,268.367v9.578c0,0.245-0.244,0.49-0.557,0.49
			s-0.534-0.245-0.534-0.49v-9.578c0-0.269,0.223-0.445,0.534-0.445C550.779,267.919,551.023,268.098,551.023,268.367z"/>
		<path d="M555.012,275.25c0,1.582,0.602,2.162,2.294,2.162h0.558c0.312,0,0.514,0.223,0.514,0.512c0,0.268-0.201,0.513-0.514,0.513
			h-0.558c-2.205,0-3.386-0.958-3.386-3.187v-11.963c0-0.268,0.29-0.469,0.533-0.469c0.29,0,0.559,0.201,0.559,0.469v4.635h2.963
			c0.223,0,0.423,0.223,0.423,0.488c0,0.246-0.2,0.469-0.423,0.469h-2.963V275.25z"/>
		<path d="M559.246,268.477c-0.021-0.067-0.044-0.11-0.044-0.179c0-0.289,0.334-0.534,0.646-0.534c0.179,0,0.379,0.11,0.424,0.288
			l3.141,8.578l3.054-8.578c0.089-0.178,0.245-0.288,0.423-0.288c0.268,0,0.624,0.223,0.624,0.534c0,0.066,0,0.111-0.022,0.179
			l-3.52,9.603c-0.848,2.295-2.005,5.592-4.233,5.592c-0.267,0-0.512-0.156-0.512-0.514c0-0.267,0.111-0.512,0.399-0.512
			c1.493,0,2.562-2.361,3.23-4.566L559.246,268.477z"/>
		<path d="M570.009,277.677c0,0.156-0.022,0.424-0.78,2.295c-0.066,0.156-0.223,0.244-0.378,0.244c-0.223,0-0.446-0.133-0.446-0.355
			c0-0.066,0-0.111,0.022-0.199l0.424-1.138c-0.379-0.11-0.646-0.468-0.646-0.868c0-0.49,0.379-0.914,0.893-0.914
			C569.542,276.742,570.009,277.076,570.009,277.677z"/>
		<path d="M577.182,262.619c0-0.246,0.2-0.445,0.513-0.469h4.01c2.519,0,4.479,1.27,4.479,4.656v0.244
			c0,3.387-1.982,4.679-4.5,4.679h-3.386v6.216c0,0.334-0.269,0.49-0.558,0.49c-0.268,0-0.558-0.156-0.558-0.49V262.619
			L577.182,262.619z M578.297,263.218v7.486h3.386c2.116,0,3.387-1.158,3.387-3.631v-0.246c0-2.473-1.271-3.609-3.387-3.609H578.297
			z"/>
		<path d="M589.549,277.945c0,0.245-0.244,0.49-0.558,0.49c-0.312,0-0.534-0.245-0.534-0.49v-16.105
			c0-0.268,0.224-0.469,0.534-0.469c0.312,0,0.558,0.201,0.558,0.469v7.641c0.469-0.868,1.471-1.691,2.963-1.691
			c2.161,0,3.987,1.826,3.987,4.076v6.082c0,0.334-0.289,0.489-0.557,0.489s-0.535-0.155-0.535-0.489v-6.082
			c0-1.537-1.357-3.053-2.984-3.053c-1.427,0-2.874,1.137-2.874,3.053V277.945z"/>
		<path d="M600.69,263.776c0,0.446-0.379,0.824-0.824,0.824c-0.489,0-0.847-0.378-0.847-0.824c0-0.423,0.356-0.778,0.847-0.778
			C600.311,262.998,600.69,263.353,600.69,263.776z M600.423,268.367v9.578c0,0.245-0.245,0.49-0.558,0.49
			c-0.312,0-0.534-0.245-0.534-0.49v-9.578c0-0.269,0.224-0.445,0.534-0.445C600.177,267.921,600.423,268.098,600.423,268.367z"/>
		<path d="M604.635,261.837v16.106c0,0.245-0.245,0.49-0.558,0.49c-0.312,0-0.535-0.245-0.535-0.49v-16.106
			c0-0.268,0.224-0.467,0.535-0.467C604.389,261.371,604.635,261.572,604.635,261.837z"/>
		<path d="M609.112,263.776c0,0.446-0.379,0.824-0.824,0.824c-0.489,0-0.847-0.378-0.847-0.824c0-0.423,0.356-0.778,0.847-0.778
			C608.733,262.998,609.112,263.353,609.112,263.776z M608.844,268.367v9.578c0,0.245-0.245,0.49-0.558,0.49
			c-0.312,0-0.533-0.245-0.533-0.49v-9.578c0-0.269,0.223-0.445,0.533-0.445C608.598,267.921,608.844,268.098,608.844,268.367z"/>
		<path d="M612.856,268.367v1.112c0.489-0.868,1.492-1.692,2.985-1.692c2.183,0,4.01,1.826,4.01,4.076v2.586
			c0,2.159-1.85,4.12-3.966,4.12c-1.358,0-2.519-0.78-3.008-1.692v6.305c0,0.244-0.245,0.49-0.558,0.49
			c-0.312,0-0.534-0.246-0.534-0.49v-14.814c0-0.268,0.224-0.445,0.534-0.445C612.611,267.919,612.856,268.098,612.856,268.367z
			 M618.76,271.863c0-1.537-1.359-3.052-3.009-3.052c-1.426,0-2.873,1.136-2.873,3.052v3.342c0,0.713,1.247,2.34,2.919,2.34
			c1.581,0,2.963-1.516,2.963-3.096V271.863z"/>
		<path d="M623.44,268.367v1.112c0.489-0.868,1.492-1.692,2.985-1.692c2.183,0,4.01,1.826,4.01,4.076v2.586
			c0,2.159-1.85,4.12-3.966,4.12c-1.358,0-2.519-0.78-3.008-1.692v6.305c0,0.244-0.245,0.49-0.558,0.49
			c-0.312,0-0.534-0.246-0.534-0.49v-14.814c0-0.268,0.224-0.445,0.534-0.445C623.195,267.919,623.44,268.098,623.44,268.367z
			 M629.344,271.863c0-1.537-1.359-3.052-3.008-3.052c-1.427,0-2.874,1.136-2.874,3.052v3.342c0,0.713,1.248,2.34,2.919,2.34
			c1.582,0,2.963-1.516,2.963-3.096V271.863z"/>
		<path d="M634.313,263.776c0,0.446-0.379,0.824-0.824,0.824c-0.49,0-0.847-0.378-0.847-0.824c0-0.423,0.356-0.778,0.847-0.778
			C633.934,262.998,634.313,263.353,634.313,263.776z M634.046,268.367v9.578c0,0.245-0.245,0.49-0.558,0.49
			c-0.312,0-0.534-0.245-0.534-0.49v-9.578c0-0.269,0.224-0.445,0.534-0.445C633.8,267.921,634.046,268.098,634.046,268.367z"/>
		<path d="M638.079,277.945c0,0.245-0.244,0.49-0.557,0.49s-0.534-0.245-0.534-0.49v-9.578c0-0.269,0.224-0.445,0.534-0.445
			c0.29,0,0.535,0.178,0.535,0.445v1.112c0.468-0.868,1.492-1.692,2.984-1.692c2.16,0,3.987,1.826,3.987,4.076v6.082
			c0,0.334-0.29,0.49-0.557,0.49c-0.269,0-0.535-0.156-0.535-0.49v-6.082c0-1.537-1.358-3.052-2.985-3.052
			c-1.426,0-2.874,1.136-2.874,3.052L638.079,277.945L638.079,277.945z"/>
		<path d="M655.613,271.819c0,1.671-0.936,1.716-1.894,1.716h-5.168v0.936c0,1.916,1.515,3.097,3.587,3.097
			c1.826,0,2.183-0.892,2.649-0.892c0.269,0,0.514,0.312,0.514,0.535c0,0.467-1.227,1.358-3.208,1.358
			c-2.719,0-4.634-1.647-4.634-4.12v-2.652c0-2.184,1.849-4.01,4.099-4.01C653.719,267.787,655.613,269.479,655.613,271.819z
			 M653.297,272.621c1.002,0,1.247-0.134,1.247-0.802c0-1.517-1.202-3.053-2.985-3.053c-1.692,0-3.007,1.358-3.007,2.94v0.914
			H653.297L653.297,272.621z"/>
		<path d="M663.033,275.875c0-3.23-5.547-1.449-5.547-5.146c0-1.359,0.98-2.939,3.388-2.939c1.381,0,2.852,0.512,2.852,1.002
			c0,0.199-0.223,0.578-0.49,0.578c-0.312,0-1.003-0.602-2.34-0.602c-1.76,0-2.383,1.113-2.383,1.938
			c0,2.764,5.568,1.024,5.568,5.103c0,1.716-1.271,2.763-3.476,2.763c-2.05,0-3.364-0.912-3.364-1.515
			c0-0.224,0.201-0.513,0.401-0.513c0.445,0,0.891,1.047,2.939,1.047C662.365,277.587,663.033,276.787,663.033,275.875z"/>
		<path d="M667.626,277.656c0,0.489-0.425,0.913-0.893,0.913c-0.534,0-0.913-0.424-0.913-0.913c0-0.49,0.379-0.914,0.913-0.914
			C667.201,276.742,667.626,277.166,667.626,277.656z"/>
		<path d="M215.414,289.356c0-0.334,0.29-0.468,0.558-0.468c0.29,0,0.557,0.134,0.557,0.468v15.327c0,0.334-0.268,0.49-0.557,0.49
			c-0.269,0-0.558-0.156-0.558-0.49V289.356z"/>
		<path d="M220.962,289.58c0,0.334-0.334,1.336-0.802,2.316c-0.089,0.154-0.245,0.245-0.355,0.245c-0.224,0-0.446-0.156-0.446-0.401
			c0-0.045,0-0.111,0.021-0.156l0.424-1.135c-0.38-0.135-0.646-0.49-0.646-0.869c0-0.513,0.401-0.914,0.914-0.914
			C220.562,288.666,220.962,289.067,220.962,289.58z"/>
		<path d="M229.517,298.511c0-1.692-1.226-2.963-2.719-2.963c-1.402,0-2.828,1.137-2.828,3.053v6.082c0,0.244-0.245,0.49-0.558,0.49
			c-0.312,0-0.535-0.246-0.535-0.49v-9.579c0-0.269,0.224-0.444,0.535-0.444c0.29,0,0.535,0.178,0.535,0.444v1.112
			c0.49-0.867,1.493-1.691,2.985-1.691c1.491,0,2.673,0.913,3.252,2.229c0.779-1.516,2.094-2.229,3.386-2.229
			c1.894,0,3.698,1.471,3.698,4.076v6.082c0,0.244-0.245,0.49-0.558,0.49c-0.29,0-0.535-0.246-0.535-0.49v-6.082
			c0-2.027-1.426-3.053-2.739-3.053c-1.403,0-2.829,1.158-2.829,2.941v6.215c0,0.334-0.268,0.469-0.558,0.469
			c-0.244,0-0.534-0.135-0.534-0.469L229.517,298.511L229.517,298.511z"/>
		<path d="M245.65,295.104v1.112c0.49-0.867,1.493-1.691,2.984-1.691c2.184,0,4.011,1.826,4.011,4.076v2.585
			c0,2.16-1.85,4.121-3.966,4.121c-1.359,0-2.518-0.78-3.008-1.692v6.305c0,0.244-0.245,0.49-0.557,0.49s-0.535-0.246-0.535-0.49
			v-14.814c0-0.268,0.224-0.445,0.535-0.445C245.405,294.66,245.65,294.835,245.65,295.104z M251.554,298.601
			c0-1.537-1.359-3.053-3.009-3.053c-1.426,0-2.874,1.137-2.874,3.053v3.342c0,0.713,1.248,2.34,2.918,2.34
			c1.582,0,2.964-1.516,2.964-3.097L251.554,298.601L251.554,298.601z"/>
		<path d="M261.916,298.802v5.881c0,0.268-0.223,0.49-0.535,0.49c-0.29,0-0.534-0.223-0.534-0.49v-1.068
			c-0.759,0.868-1.872,1.692-3.343,1.692c-1.715,0-3.073-0.937-3.073-2.94c0-2.384,2.094-2.984,5.189-2.984h1.203v-0.58
			c0-1.559-0.78-3.274-2.807-3.274c-1.427,0-2.027,0.624-2.34,0.624c-0.312,0-0.489-0.379-0.489-0.602
			c0-0.49,1.493-1.024,2.874-1.024C260.913,294.525,261.916,296.596,261.916,298.802z M260.824,300.272h-1.092
			c-2.184,0-4.21,0.201-4.21,2.05c0,1.381,0.936,2.006,2.139,2.006c1.561,0,3.164-1.427,3.164-2.406L260.824,300.272
			L260.824,300.272z"/>
		<path d="M269.893,302.612c0-3.229-5.547-1.448-5.547-5.146c0-1.359,0.979-2.94,3.386-2.94c1.381,0,2.852,0.513,2.852,1.002
			c0,0.2-0.223,0.579-0.489,0.579c-0.312,0-1.004-0.602-2.34-0.602c-1.76,0-2.384,1.113-2.384,1.938
			c0,2.764,5.569,1.023,5.569,5.102c0,1.717-1.271,2.764-3.476,2.764c-2.05,0-3.363-0.913-3.363-1.516c0-0.224,0.2-0.512,0.4-0.512
			c0.445,0,0.892,1.047,2.94,1.047C269.224,304.328,269.893,303.525,269.893,302.612z"/>
		<path d="M278.337,302.612c0-3.229-5.547-1.448-5.547-5.146c0-1.359,0.98-2.94,3.386-2.94c1.382,0,2.853,0.513,2.853,1.002
			c0,0.2-0.223,0.579-0.49,0.579c-0.312,0-1.002-0.602-2.339-0.602c-1.76,0-2.384,1.113-2.384,1.938
			c0,2.764,5.568,1.023,5.568,5.102c0,1.717-1.27,2.764-3.475,2.764c-2.05,0-3.364-0.913-3.364-1.516c0-0.224,0.2-0.512,0.401-0.512
			c0.445,0,0.891,1.047,2.94,1.047C277.669,304.328,278.337,303.525,278.337,302.612z"/>
		<path d="M283.017,290.514c0,0.446-0.378,0.823-0.824,0.823c-0.49,0-0.847-0.377-0.847-0.823c0-0.423,0.355-0.779,0.847-0.779
			C282.639,289.735,283.017,290.091,283.017,290.514z M282.75,295.104v9.579c0,0.244-0.245,0.49-0.557,0.49
			c-0.312,0-0.535-0.246-0.535-0.49v-9.579c0-0.269,0.223-0.444,0.535-0.444C282.505,294.66,282.75,294.835,282.75,295.104z"/>
		<path d="M293.444,298.601v2.585c0,2.16-1.916,4.121-4.099,4.121c-2.185,0-4.077-1.938-4.077-4.121v-2.585
			c0-2.184,1.849-4.076,4.077-4.076C291.528,294.525,293.444,296.351,293.444,298.601z M292.353,298.601
			c0-1.537-1.336-3.053-3.007-3.053c-1.672,0-2.985,1.516-2.985,3.053v2.585c0,1.581,1.313,3.097,2.985,3.097
			c1.647,0,3.007-1.516,3.007-3.097V298.601z"/>
		<path d="M297.055,304.683c0,0.244-0.245,0.49-0.558,0.49c-0.312,0-0.535-0.246-0.535-0.49v-9.579c0-0.269,0.224-0.444,0.535-0.444
			c0.29,0,0.535,0.178,0.535,0.444v1.112c0.468-0.867,1.493-1.691,2.985-1.691c2.161,0,3.988,1.826,3.988,4.076v6.082
			c0,0.334-0.29,0.49-0.558,0.49c-0.267,0-0.535-0.156-0.535-0.49v-6.082c0-1.537-1.358-3.053-2.984-3.053
			c-1.426,0-2.874,1.137-2.874,3.053V304.683z"/>
		<path d="M313.588,298.802v5.881c0,0.268-0.224,0.49-0.535,0.49c-0.29,0-0.535-0.223-0.535-0.49v-1.068
			c-0.758,0.868-1.872,1.692-3.342,1.692c-1.715,0-3.074-0.937-3.074-2.94c0-2.384,2.094-2.984,5.189-2.984h1.203v-0.58
			c0-1.559-0.779-3.274-2.807-3.274c-1.426,0-2.027,0.624-2.339,0.624c-0.312,0-0.49-0.379-0.49-0.602
			c0-0.49,1.493-1.024,2.874-1.024C312.585,294.525,313.588,296.596,313.588,298.802z M312.496,300.272h-1.092
			c-2.183,0-4.21,0.201-4.21,2.05c0,1.381,0.937,2.006,2.139,2.006c1.561,0,3.164-1.427,3.164-2.406L312.496,300.272
			L312.496,300.272z"/>
		<path d="M317.488,301.988c0,1.581,0.603,2.161,2.294,2.161h0.558c0.312,0,0.512,0.224,0.512,0.513
			c0,0.268-0.201,0.512-0.512,0.512h-0.558c-2.206,0-3.386-0.957-3.386-3.186v-11.964c0-0.267,0.29-0.468,0.535-0.468
			c0.29,0,0.557,0.201,0.557,0.468v4.636h2.963c0.224,0,0.424,0.223,0.424,0.488c0,0.245-0.201,0.469-0.424,0.469h-2.963V301.988
			L317.488,301.988z"/>
		<path d="M330.3,298.557c0,1.671-0.937,1.715-1.895,1.715h-5.168v0.937c0,1.916,1.516,3.097,3.586,3.097
			c1.827,0,2.184-0.892,2.651-0.892c0.267,0,0.512,0.312,0.512,0.535c0,0.467-1.225,1.358-3.208,1.358
			c-2.718,0-4.634-1.647-4.634-4.121v-2.651c0-2.184,1.849-4.01,4.099-4.01C328.405,294.525,330.3,296.216,330.3,298.557z
			 M327.982,299.359c1.002,0,1.248-0.134,1.248-0.802c0-1.517-1.203-3.054-2.985-3.054c-1.692,0-3.007,1.359-3.007,2.941v0.913
			L327.982,299.359L327.982,299.359z"/>
		<path d="M343.802,298.802v5.881c0,0.268-0.224,0.49-0.535,0.49c-0.29,0-0.535-0.223-0.535-0.49v-1.068
			c-0.758,0.868-1.872,1.692-3.342,1.692c-1.715,0-3.074-0.937-3.074-2.94c0-2.384,2.094-2.984,5.19-2.984h1.203v-0.58
			c0-1.559-0.78-3.274-2.808-3.274c-1.426,0-2.027,0.624-2.339,0.624c-0.312,0-0.49-0.379-0.49-0.602
			c0-0.49,1.493-1.024,2.874-1.024C342.8,294.525,343.802,296.596,343.802,298.802z M342.711,300.272h-1.093
			c-2.183,0-4.21,0.201-4.21,2.05c0,1.381,0.937,2.006,2.14,2.006c1.56,0,3.164-1.427,3.164-2.406L342.711,300.272L342.711,300.272z
			"/>
		<path d="M347.747,288.578v7.641c0.49-0.868,1.493-1.692,2.964-1.692c2.183,0,4.01,1.826,4.01,4.076v2.585
			c0,2.16-1.85,4.121-3.965,4.121c-1.359,0-2.54-0.78-3.03-1.693v1.069c0,0.245-0.245,0.489-0.535,0.489
			c-0.312,0-0.535-0.244-0.535-0.489v-16.106c0-0.268,0.224-0.468,0.535-0.468C347.503,288.11,347.747,288.309,347.747,288.578z
			 M353.629,298.601c0-1.537-1.359-3.053-2.985-3.053c-1.426,0-2.896,1.137-2.896,3.053v3.342c0,0.713,1.248,2.34,2.918,2.34
			c1.604,0,2.964-1.516,2.964-3.097V298.601L353.629,298.601z"/>
		<path d="M364.992,298.601v2.585c0,2.16-1.916,4.121-4.099,4.121s-4.077-1.938-4.077-4.121v-2.585c0-2.184,1.849-4.076,4.077-4.076
			C363.076,294.525,364.992,296.351,364.992,298.601z M363.9,298.601c0-1.537-1.336-3.053-3.007-3.053s-2.985,1.516-2.985,3.053
			v2.585c0,1.581,1.314,3.097,2.985,3.097c1.648,0,3.007-1.516,3.007-3.097V298.601z"/>
		<path d="M367.399,301.23v-6.104c0-0.246,0.245-0.469,0.557-0.469c0.268,0,0.535,0.223,0.535,0.469v6.104
			c0,1.561,1.315,3.053,2.985,3.053c1.671,0,2.985-1.471,2.985-3.053v-6.126c0-0.245,0.268-0.444,0.558-0.444
			c0.312,0,0.534,0.199,0.534,0.444v6.126c0,2.184-1.85,4.077-4.077,4.077C369.226,305.307,367.399,303.391,367.399,301.23z"/>
		<path d="M379.431,301.988c0,1.581,0.602,2.161,2.295,2.161h0.557c0.312,0,0.514,0.224,0.514,0.513c0,0.268-0.2,0.512-0.514,0.512
			h-0.557c-2.205,0-3.387-0.957-3.387-3.186v-11.964c0-0.267,0.29-0.468,0.534-0.468c0.289,0,0.558,0.201,0.558,0.468v4.636h2.963
			c0.223,0,0.424,0.223,0.424,0.488c0,0.245-0.201,0.469-0.424,0.469h-2.963V301.988L379.431,301.988z"/>
		<path d="M390.817,302.367c-0.401,0.2-0.802,0.445-0.802,0.979c0,2.139,6.995-0.065,6.995,3.966c0,2.005-1.716,3.098-4.277,3.098
			c-2.584,0-4.411-1.138-4.411-2.918c0-1.338,0.98-2.096,1.961-2.451c-0.758-0.246-1.293-0.646-1.293-1.561
			c0-0.824,0.424-1.247,1.092-1.581c-0.733-0.646-1.18-1.649-1.18-2.808v-0.914c0-2.139,1.47-3.652,3.697-3.652
			c1.069,0,1.981,0.355,2.629,1.002c0.424-0.824,1.092-1.381,1.627-1.381c0.4,0,0.578,0.268,0.578,0.514
			c0,0.266-0.2,0.422-0.4,0.444c-0.355,0.022-0.891,0.245-1.292,1.002c0.401,0.535,0.579,1.292,0.579,2.071v0.914
			c0,2.115-1.537,3.697-3.742,3.697C391.931,302.791,391.33,302.656,390.817,302.367z M391.575,305.307
			c-1.113,0.334-2.184,0.913-2.184,2.071c0,1.271,1.248,2.139,3.342,2.139c2.05,0,3.188-0.846,3.188-2.16
			C395.92,305.352,392.978,305.485,391.575,305.307z M395.251,298.177c0-1.559-0.98-2.739-2.651-2.739
			c-1.67,0-2.629,1.181-2.629,2.739v0.892c0,1.604,0.979,2.808,2.65,2.808c1.626,0,2.63-1.18,2.63-2.785V298.177z"/>
		<path d="M403.251,295.548c-1.517,0-3.009,1.227-3.009,3.254v5.881c0,0.244-0.245,0.49-0.558,0.49s-0.534-0.246-0.534-0.49v-9.579
			c0-0.269,0.223-0.444,0.534-0.444c0.29,0,0.535,0.178,0.535,0.444v1.136c0.49-0.867,1.537-1.715,3.029-1.715h0.803
			c0.268,0,0.489,0.223,0.489,0.512c0,0.291-0.223,0.514-0.489,0.514h-0.801V295.548z"/>
		<path d="M412.764,298.802v5.881c0,0.268-0.223,0.49-0.535,0.49c-0.289,0-0.534-0.223-0.534-0.49v-1.068
			c-0.758,0.868-1.871,1.692-3.342,1.692c-1.716,0-3.074-0.937-3.074-2.94c0-2.384,2.094-2.984,5.19-2.984h1.203v-0.58
			c0-1.559-0.779-3.274-2.808-3.274c-1.426,0-2.026,0.624-2.34,0.624c-0.312,0-0.49-0.379-0.49-0.602
			c0-0.49,1.493-1.024,2.874-1.024C411.761,294.525,412.764,296.596,412.764,298.802z M411.673,300.272h-1.093
			c-2.183,0-4.21,0.201-4.21,2.05c0,1.381,0.937,2.006,2.14,2.006c1.559,0,3.163-1.427,3.163-2.406V300.272z"/>
		<path d="M416.687,295.104v1.112c0.49-0.867,1.492-1.691,2.984-1.691c2.184,0,4.011,1.826,4.011,4.076v2.585
			c0,2.16-1.851,4.121-3.966,4.121c-1.358,0-2.519-0.78-3.009-1.692v6.305c0,0.244-0.243,0.49-0.557,0.49
			c-0.312,0-0.534-0.246-0.534-0.49v-14.814c0-0.268,0.224-0.445,0.534-0.445C416.442,294.66,416.687,294.835,416.687,295.104z
			 M422.591,298.601c0-1.537-1.359-3.053-3.009-3.053c-1.426,0-2.874,1.137-2.874,3.053v3.342c0,0.713,1.248,2.34,2.92,2.34
			c1.582,0,2.963-1.516,2.963-3.097V298.601L422.591,298.601z"/>
		<path d="M427.292,304.683c0,0.244-0.243,0.49-0.557,0.49c-0.312,0-0.534-0.246-0.534-0.49v-16.105
			c0-0.269,0.224-0.469,0.534-0.469c0.312,0,0.557,0.2,0.557,0.469v7.641c0.47-0.868,1.472-1.692,2.964-1.692
			c2.161,0,3.987,1.826,3.987,4.076v6.082c0,0.334-0.29,0.489-0.557,0.489c-0.268,0-0.535-0.155-0.535-0.489v-6.082
			c0-1.537-1.357-3.052-2.984-3.052c-1.427,0-2.874,1.136-2.874,3.052L427.292,304.683L427.292,304.683z"/>
		<path d="M438.433,290.514c0,0.446-0.379,0.823-0.824,0.823c-0.49,0-0.847-0.377-0.847-0.823c0-0.423,0.355-0.779,0.847-0.779
			C438.054,289.735,438.433,290.091,438.433,290.514z M438.166,295.104v9.579c0,0.244-0.243,0.49-0.557,0.49
			c-0.312,0-0.534-0.246-0.534-0.49v-9.579c0-0.269,0.224-0.444,0.534-0.444C437.922,294.66,438.166,294.835,438.166,295.104z"/>
		<path d="M440.729,301.186v-2.54c0-2.316,1.314-4.121,4.188-4.121c1.826,0,3.008,0.848,3.008,1.357
			c0,0.269-0.224,0.535-0.513,0.535c-0.379,0-0.779-0.869-2.474-0.869c-2.027,0-3.118,1.182-3.118,3.098v2.54
			c0,1.915,1.069,3.097,3.142,3.097c1.805,0,2.184-0.892,2.605-0.892c0.268,0,0.49,0.29,0.49,0.534c0,0.535-1.203,1.382-3.142,1.382
			C442.066,305.307,440.729,303.546,440.729,301.186z"/>
		<path d="M453.987,300.697c0-2.318,1.561-3.744,3.074-4.412c-0.892-1.092-1.849-2.295-1.849-4.055c0-2.384,1.76-3.721,3.854-3.721
			c2.384,0,3.453,1.492,3.453,2.027c0,0.289-0.223,0.512-0.513,0.512c-0.513,0-0.758-1.582-2.853-1.582
			c-1.715,0-2.74,1.138-2.74,2.853c0,1.604,0.958,2.763,2.027,3.921l4.745,5.258c0.669-1.537,0.803-3.252,0.824-4.345
			c0-0.378,0.134-0.534,0.513-0.534c0.334,0,0.468,0.2,0.468,0.646c0,0.846-0.134,3.117-1.068,5.012l2.095,2.271
			c0.089,0.111,0.133,0.201,0.133,0.291c0,0.268-0.267,0.468-0.512,0.468c-0.111,0-0.224-0.046-0.334-0.156l-1.916-2.05
			c-0.893,1.314-2.295,2.295-4.435,2.295C455.769,305.396,453.987,303.212,453.987,300.697z M462.676,302.367l-4.969-5.347
			c-1.068,0.603-2.585,1.515-2.585,3.563c0,1.982,1.427,3.766,4.012,3.766C460.916,304.349,461.985,303.525,462.676,302.367z"/>
		<path d="M481.77,305.017c-0.089,0.223-0.245,0.312-0.445,0.312c-0.245,0-0.355-0.09-0.444-0.291l-2.474-7.842l-2.451,7.73
			c-0.089,0.268-0.267,0.4-0.488,0.4c-0.245,0-0.379-0.09-0.49-0.4l-3.477-9.469c-0.021-0.066-0.089-0.244-0.089-0.312
			c0-0.289,0.312-0.513,0.623-0.513c0.18,0,0.356,0.09,0.446,0.268l3.007,8.354l2.429-7.662c0.066-0.245,0.245-0.336,0.49-0.336
			c0.224,0,0.4,0.091,0.468,0.336l2.361,7.773l3.074-8.466c0.045-0.178,0.223-0.267,0.424-0.267c0.289,0,0.601,0.178,0.601,0.49
			c0,0.11-0.044,0.267-0.089,0.334L481.77,305.017z"/>
		<path d="M494.962,298.557c0,1.671-0.937,1.715-1.895,1.715H487.9v0.937c0,1.916,1.515,3.097,3.587,3.097
			c1.826,0,2.184-0.892,2.65-0.892c0.268,0,0.513,0.312,0.513,0.535c0,0.467-1.226,1.358-3.208,1.358
			c-2.718,0-4.634-1.647-4.634-4.121v-2.651c0-2.184,1.849-4.01,4.1-4.01C493.068,294.525,494.962,296.216,494.962,298.557z
			 M492.645,299.359c1.002,0,1.247-0.134,1.247-0.802c0-1.517-1.203-3.054-2.984-3.054c-1.692,0-3.008,1.359-3.008,2.941v0.913
			L492.645,299.359L492.645,299.359z"/>
		<path d="M498.349,288.578v7.641c0.49-0.868,1.493-1.692,2.963-1.692c2.184,0,4.011,1.826,4.011,4.076v2.585
			c0,2.16-1.85,4.121-3.966,4.121c-1.358,0-2.539-0.78-3.029-1.693v1.069c0,0.245-0.245,0.489-0.534,0.489
			c-0.312,0-0.534-0.244-0.534-0.489v-16.106c0-0.268,0.223-0.468,0.534-0.468C498.105,288.109,498.349,288.309,498.349,288.578z
			 M504.231,298.601c0-1.537-1.359-3.053-2.985-3.053c-1.426,0-2.896,1.137-2.896,3.053v3.342c0,0.713,1.248,2.34,2.919,2.34
			c1.604,0,2.963-1.516,2.963-3.097L504.231,298.601L504.231,298.601z"/>
		<path d="M519.962,288.578v16.105c0,0.244-0.224,0.49-0.534,0.49c-0.29,0-0.535-0.246-0.535-0.49v-1.068
			c-0.49,0.912-1.671,1.692-3.029,1.692c-2.117,0-3.966-1.962-3.966-4.121v-2.585c0-2.25,1.827-4.076,4.01-4.076
			c1.472,0,2.474,0.824,2.963,1.691v-7.641c0-0.268,0.245-0.468,0.559-0.468C519.739,288.109,519.962,288.309,519.962,288.578z
			 M512.989,301.186c0,1.581,1.358,3.097,2.963,3.097c1.672,0,2.918-1.627,2.918-2.34v-3.342c0-1.916-1.47-3.053-2.896-3.053
			c-1.648,0-2.985,1.516-2.985,3.053V301.186L512.989,301.186z"/>
		<path d="M530.657,298.557c0,1.671-0.936,1.715-1.894,1.715h-5.168v0.937c0,1.916,1.515,3.097,3.587,3.097
			c1.826,0,2.183-0.892,2.649-0.892c0.269,0,0.514,0.312,0.514,0.535c0,0.467-1.227,1.358-3.208,1.358
			c-2.719,0-4.634-1.647-4.634-4.121v-2.651c0-2.184,1.849-4.01,4.1-4.01C528.763,294.525,530.657,296.216,530.657,298.557z
			 M528.341,299.359c1.002,0,1.247-0.134,1.247-0.802c0-1.517-1.203-3.054-2.984-3.054c-1.693,0-3.008,1.359-3.008,2.941v0.913
			L528.341,299.359L528.341,299.359z"/>
		<path d="M538.078,302.612c0-3.229-5.548-1.448-5.548-5.146c0-1.359,0.98-2.94,3.388-2.94c1.381,0,2.852,0.513,2.852,1.002
			c0,0.2-0.223,0.579-0.49,0.579c-0.312,0-1.003-0.602-2.339-0.602c-1.761,0-2.384,1.113-2.384,1.938
			c0,2.764,5.569,1.023,5.569,5.102c0,1.717-1.271,2.764-3.477,2.764c-2.05,0-3.364-0.913-3.364-1.516
			c0-0.224,0.201-0.512,0.401-0.512c0.445,0,0.891,1.047,2.94,1.047C537.409,304.328,538.078,303.525,538.078,302.612z"/>
		<path d="M542.758,290.514c0,0.446-0.379,0.823-0.824,0.823c-0.49,0-0.847-0.377-0.847-0.823c0-0.423,0.355-0.779,0.847-0.779
			C542.379,289.735,542.758,290.091,542.758,290.514z M542.49,295.104v9.579c0,0.244-0.244,0.49-0.557,0.49s-0.534-0.246-0.534-0.49
			v-9.579c0-0.269,0.223-0.444,0.534-0.444C542.246,294.66,542.49,294.835,542.49,295.104z"/>
		<path d="M547.081,302.367c-0.4,0.2-0.802,0.445-0.802,0.979c0,2.139,6.995-0.065,6.995,3.966c0,2.005-1.716,3.098-4.277,3.098
			c-2.585,0-4.41-1.138-4.41-2.918c0-1.338,0.979-2.096,1.96-2.451c-0.758-0.246-1.292-0.646-1.292-1.561
			c0-0.824,0.424-1.247,1.092-1.581c-0.735-0.646-1.182-1.649-1.182-2.808v-0.914c0-2.139,1.471-3.652,3.698-3.652
			c1.069,0,1.982,0.355,2.629,1.002c0.423-0.824,1.091-1.381,1.626-1.381c0.401,0,0.579,0.268,0.579,0.514
			c0,0.266-0.2,0.422-0.4,0.444c-0.356,0.022-0.892,0.245-1.292,1.002c0.4,0.535,0.578,1.292,0.578,2.071v0.914
			c0,2.115-1.536,3.697-3.741,3.697C548.194,302.791,547.593,302.656,547.081,302.367z M547.838,305.307
			c-1.113,0.334-2.184,0.913-2.184,2.071c0,1.271,1.247,2.139,3.342,2.139c2.05,0,3.187-0.846,3.187-2.16
			C552.182,305.352,549.242,305.485,547.838,305.307z M551.513,298.177c0-1.559-0.979-2.739-2.65-2.739s-2.629,1.181-2.629,2.739
			v0.892c0,1.604,0.98,2.808,2.651,2.808c1.626,0,2.628-1.18,2.628-2.785V298.177L551.513,298.177z"/>
		<path d="M556.506,304.683c0,0.244-0.244,0.49-0.558,0.49c-0.312,0-0.534-0.246-0.534-0.49v-9.579c0-0.269,0.224-0.444,0.534-0.444
			c0.29,0,0.535,0.178,0.535,0.444v1.112c0.468-0.867,1.492-1.691,2.984-1.691c2.161,0,3.987,1.826,3.987,4.076v6.082
			c0,0.334-0.29,0.49-0.557,0.49c-0.268,0-0.535-0.156-0.535-0.49v-6.082c0-1.537-1.357-3.053-2.984-3.053
			c-1.427,0-2.874,1.137-2.874,3.053L556.506,304.683L556.506,304.683z"/>
		<path d="M571.412,302.612c0-3.229-5.548-1.448-5.548-5.146c0-1.359,0.98-2.94,3.388-2.94c1.381,0,2.852,0.513,2.852,1.002
			c0,0.2-0.223,0.579-0.49,0.579c-0.312,0-1.003-0.602-2.339-0.602c-1.761,0-2.384,1.113-2.384,1.938
			c0,2.764,5.569,1.023,5.569,5.102c0,1.717-1.271,2.764-3.477,2.764c-2.05,0-3.364-0.913-3.364-1.516
			c0-0.224,0.201-0.512,0.401-0.512c0.445,0,0.891,1.047,2.94,1.047C570.743,304.328,571.412,303.525,571.412,302.612z"/>
		<path d="M576.003,304.394c0,0.488-0.424,0.913-0.893,0.913c-0.534,0-0.913-0.425-0.913-0.913c0-0.49,0.379-0.914,0.913-0.914
			C575.58,303.48,576.003,303.904,576.003,304.394z"/>
	</g>
</g>
</svg>
